<?xml version="1.0" encoding="UTF-8"?>
<svg id="Layer_1" xmlns="http://www.w3.org/2000/svg" version="1.1" viewBox="0 0 864 864">
  <!-- Generator: Adobe Illustrator 30.2.1, SVG Export Plug-In . SVG Version: 2.1.1 Build 1)  -->
  <defs>
    <style>
      .st0 {
        fill: #649b27;
      }

      .st1 {
        fill: #b44b00;
      }

      .st2 {
        fill: #84fc00;
      }

      .st3 {
        fill: #c91420;
      }
    </style>
  </defs>
  <path d="M298.1,692c-6.6,0-10.9-4.1-15.8-4.2-2,2-4.9,4.1-6.9,4.1h-29.3c-3.4.1-7.1-2.1-9.4-4.3-1.8,1.4-6.3,4.3-8.9,4.3h-19.2c-5.1,0-11.4-2.9-16.1-4.2-4.3,5.8-17.1,5-20,3.5-4.7-2.3-4.9-12.4-5.8-11.9-3.5,2.1-6.2,4.9-9.4,3.9l-7-2.1,5.6-11.8c1.8-3.9,8.2-2.8,9.2-8.3l.5-3.1c.1-.6,1.8,0,2.2.1l2.1,12.6c.6,3.4,1.7,7.9,3,11.3,4.6,1.5,15,1.7,17.7-1.9l6.8-9.3c.6-.8,2.9-1.8,3.8-1.8s2.9,1.5,3.2,2.3l2.9,6.2c.5,1,0,3.2-.5,4.9l14.1.4-3-18.4c-1.6-10.2-6.4-4.4,0-16.3l5.4,6c1.6,1.8.9,5.2-1.7,7.6l2.6,17.1.5,3.1c.1.8,2.7,1.2,3.5.9l6.4-2-3.9-3.1c-.5-.4-2.2-.4-3.6-.6.2-1.7.8-6,1.9-7.6,2.9-4.1,12-4.4,15.5.5,2.4,3.5.2,8.5-2.7,10.6l2.7,2.2,21.4-.2c0-5.8-6.4-5.9-.5-15,2.8,4.5,3.8,8.8,4.7,14.9,3.9.9,9.4-.5,11.9-4.1l5.8-8c.9-1.2,5.2-1.7,5.9-.2,1.8,3.9,3.4,7.8,5.1,12.4l10.4.3c2.2.2,3,.3,1.6-.9l-2.6-15.5c-.6-3.6-1.6-6.2-3.7-9.7l3-9,6.2,6.4c3.1,3.3-3,6.4-1.9,11.2,2.1,9.2,3.1,16.3,3.5,26.6l-17.1.2ZM165.7,672.1c.2-.7-1-3.1-1.6-3.9l-5.7,4.8c1.7,2.8,6.8,1.2,7.3-.9ZM202.9,682l-5.1-5.8-3.7,3.6,8.8,2.2ZM291.5,681.4l-2-3.7c-.4-.7-3.2-.7-3.4.1s-.2,2.5.5,2.6l4.9,1ZM617.1,681.4c1.3-3.6-7.6-6.8,0-14,4.5,7.2,2,14.5,6.3,14.3l12.8-.5-2.7-6.1c-.8-1.7.7-5.3,2.3-7.7,3,4.3,3.6,7.9,4,13.9,1.2.6,6.2.5,8.1-1.1s3-4.6,4.7-7.7l.9,4c.3,1.3,1.3,4.9,2.6,4.9h9.4c1.6,0,4-3.4,4.4-5l.7-2.8c.2-.6,1.2-.2,2.4,0l-1.1,6.3,6.3,1.5c-1.1-5.5-1.7-8.7,3.1-11.5l1.1,10.8,4.9.5c2.5.3,4.6.9,7.3,1.9-.8-7.2-1.8-15.6-3.9-22.7s-3.3-7.8.6-12.3l6.2,5c1.7,1.3-.9,6.3-2.1,8.2l1.7,11.4c.9,6.1,1.4,11.5,1.3,18-8.2,0-14.7.2-22-.6-3.5-.4-5.5-1-9.2,0s-13.3,2-16.1-3.7l-5.3,4.3h-69.7c-4.5-3.1-5.8-9-6.5-14.5-.8,1.5-3.7,5.8-5.8,6.1-3.1.4-7-.7-10.7-1.9l4.2-9.6c1-2.4,4.3-5,7-6.5,5.8-3.3.5-3.1,5.8-9.6l3.8,21.6c.2,1.4,1.6,3.9,2.6,5.1h22.7c-4.7-6.2-5.8-5.3-2.1-14.5,1.8,3,3.1,5.3,3.6,7.7l1.4,6.8h14.7ZM566,673.4c1.2,0,3.7-2,3.4-2.9l-1.3-3.3-5.4,3.5c-.6.4-.8,2.9-.1,2.9l3.5-.2ZM409.5,690.9c-2.6-3.6-4.3-8.4-5.8-12.8-5.2,5.9-6.7,5.5-15.8,2.4,4.3-12.8,4.7-12.2,13.5-17.8l2.7-8.6c3.1,8.8,2.4,19.2,5.9,27.4h17.9c2,.9,2.4,1,.8-1.1l-2.6-17.7c-1.2-8-7-2.5,0-15.6l5,5.1c3.9,4-2.4,5.2-.6,15.2l2.4,13.9c3.3.3,9.4.6,11-1.6l7.9-10.7c2.5-3.4,10.8,2.2,9.9,18.1l-.2,2.9c0,.8-2.9,1-3.8.7l-11.3-3.9-4.7,3.9-32.3.2ZM404.5,671.4l-2.3-3.8c-2.9,1-5.5,2.8-5.6,5.7,2.6.4,5.3-.5,7.9-1.9ZM455.4,681.9c1.1-1.8-2.4-6.8-4.2-5.6s-3.6,2.6-3.3,2.5l7.4,3ZM466.8,649.4l-3,7.7c1,2.5,2.4,6,2.4,8v10.2c-.2,5.5,1.1,10.6,3.9,15.2l8.4.6c4.8.3,9.8-1.8,12.6-4.6.8,1.3,3.7,4.4,5.5,4.4h24c.1-7.1-.8-13.4-2.1-20.2l-1.7-8.9c2.2-2.1,3.8-6.8,2.1-8.6l-5.9-6.2-3.3,9.5c2.7,2.8,3.2,4.5,3.7,7.6l1.6,10.7c.2,1.5,1,4.1,1.7,7.1l-21.8-.7c3.4-3.4,6.4-8.4,2.9-12.5s-8.8-4.1-12.4-2.5-5.4,7.3-4.7,10.8c1.9,0,4.2,0,5.2.8l2.1,1.6c-1.2.6-3.6,2-4.5,2h-11.2c-.9-3.1-1.7-6-1.7-8.6l-.3-14.9c0-2.1-2.3-6.4-3.6-8.5ZM354.8,702.3c-8.5,7-12.1,4-22.8-4.1.7-.3,3.4-.4,4.6,0,6.8,2.4,15.4.4,19.4-6.3-2.4-1-4.9-1.9-6.4-2.7-3.3-1.7-3.9-17.3,4.9-21.3,5.8-2.6,14.6,22.4.2,34.3ZM358.8,682.5l-3.1-4.5c-.4-.6-2.5-1.2-2.9-.7l-2.2,3c-.3-.3.3.3,1.6,1.7l6.6.5ZM711.4,674.1l-1.2-10.9-2.9-12.6c-3.2,3.9-3.6,8.8-2.8,13.9l2.3,14.7c.3,2.1,0,5.1,0,8.3l2.2,4.1c3.7-5.3,2.9-13.9,2.5-17.5ZM532.6,674.5l-1.3-13.2c-.3-2.9-1.3-5.9-2.6-9.7l-3.6,6.5,2.1,11c.5,2.4.8,5.7.9,8l.4,15.4c6.1-5.3,4.7-12.1,4.1-18.1ZM327.2,673.6l-3.5-21.9c-2.4,2.9-4.2,6.5-3.9,8.5l2.6,17.4c.7,5,.4,10.2.4,15.7,6.1-5.5,5.6-13,4.5-19.7ZM670.2,662.6l4.3,2.2,3.8-6.5-5.7-3.2-3.2,4.5-5.1-1.6-2.5,5.4c-.7,1.5,4.5,4.1,5.5,2.8l2.9-3.6ZM260.3,659.8c1.8.5,4.6,1.6,5.1.8l3.1-5.1-5.7-2.5-3.4,3.9-5.3-1.8-2.4,6.5,5.1,2.9,3.4-4.6ZM616.1,703l3.7-5.9-5.8-2.9-2.7,3.6h-6.1c0-.1-2.6,4.9-2.6,4.9l5.6,2.8,3.6-4.6,4.4,2ZM566.1,646.7l4.7,1.9,3.2-5.8-5.2-3.1-3.4,4.4-4.4-1.2c-1.6-.4-3,3.6-3.3,5.4l5.3,3.4,3.1-5ZM163.5,648l4.6.3c.9,0,1.9-2.6,2.1-3.9s-4.2-3.9-5.1-3.2l-3,4-5-1.9-2.9,5.2,5.6,3.8c2.3-3.6,2.8-4.5,3.7-4.4ZM400.2,646.6l4.5,2.1,3.9-6-5.9-2.8-3,4.5-5.1-1.8-3.2,5.3,5.3,3.7,3.5-5.1ZM597.3,698.2l-7.4-4.1-3.6,6.8,7.7,3.9,3.3-6.6ZM624.3,700.9l7.7,4.5,4.1-7-7.7-4.5-4.1,7ZM671.3,649.7c-.9-.8-4.5-3-5.7-2.3s-2.5,4.7-2.9,6.8l6.7,2.2,1.9-6.7ZM155.5,591.7c4.2-.3,7.8-.5,11-.5s5.7.1,7.5.4,3.3.6,4.5,1.2,2.2,1.1,3,1.8c.8.7,1.4,1.5,1.8,2.4s.7,1.9.9,2.9.2,2.1.2,3.4v20.2h-11.9v-20.2c0-3.2-2-4.7-6-4.7s-6.7.2-11,.5v-7.4ZM221,622v1.5h-11.8v-1.5c0-1.3.3-3,.8-5.4.5-2.3,1.2-4.3,1.9-6l5.5-11.6h-24.1v-7.3h37.2v5.5l-6.4,13.6c-2,4.2-3,8-3,11.1ZM205.1,635.6h-11.9v-31.2h11.9v31.2ZM248.3,623.5h-11.9v-31.8h11.9v31.8ZM287.1,591.7v6.7c-2,.6-3.4,1.3-4.1,2.1-.7.8-1.1,2.1-1.1,3.8v19.1h-11.9v-19.3c0-2.1,1-3.9,2.9-5.2h-19v-7.3h33.3ZM309.2,591.2c4.9,0,8.5.5,10.9,1.5,1.2.5,2.2,1.1,3,1.8.8.7,1.4,1.5,1.8,2.4.4,1,.7,1.9.9,2.9s.2,2.1.2,3.4v20.2h-11.9v-20.2c0-3.2-2-4.7-6-4.7s-7.9.2-12.8.6l-2.5.2v-7.3c4.9-.6,10.4-.9,16.5-.9ZM304.6,623.5h-11.9v-18.5h11.9v18.5ZM346.6,623.5h-11.9v-31.8h11.9v31.8ZM369.9,591.7c4.2-.3,7.8-.5,11-.5s5.7.1,7.5.4,3.3.6,4.5,1.2,2.2,1.1,3,1.8c.8.7,1.4,1.5,1.8,2.4s.7,1.9.9,2.9.2,2.1.2,3.4v20.2h-11.9v-20.2c0-3.2-2-4.7-6-4.7s-6.7.2-11,.5v-7.4ZM437.5,591.7v6.7c-2,.6-3.4,1.3-4.1,2.1-.7.8-1.1,2.1-1.1,3.8v19.1h-11.9v-19.3c0-2.1,1-3.9,2.9-5.2h-19v-7.3h33.3ZM455,623.5h-11.9v-31.8h11.9v31.8ZM463.7,591.6c1.6-.3,3.7-.4,6.2-.4s4.5.2,6.1.6c1.5.4,2.8.9,3.7,1.5s1.7,1.4,2.3,2.3,1,1.9,1.2,2.9.3,2.1.3,3.3v11.7c0,1.5-.1,3.1-.4,4.8-.2,1.7-.5,2.9-.7,3.8l-.3,1.3h-20.2v-7.3h9.3c.2-.8.4-1.7.4-2.6v-11.7c0-.9-.2-1.6-.7-2.2s-1.2-.9-2.3-.9-2.7,0-4.2.2h-.8c0,0,0-7.4,0-7.4ZM508.7,591.2c4.9,0,8.5.5,10.9,1.5,1.2.5,2.2,1.1,3,1.8.8.7,1.4,1.5,1.8,2.4.4,1,.7,1.9.9,2.9s.2,2.1.2,3.4v20.2h-11.9v-20.2c0-3.2-2-4.7-6-4.7s-7.9.2-12.8.6l-2.5.2v-7.3c4.9-.6,10.4-.9,16.5-.9ZM504.2,623.5h-11.9v-18.5h11.9v18.5ZM548.6,591.7c4.2-.3,7.8-.5,11-.5s5.7.1,7.5.4,3.3.6,4.5,1.2,2.2,1.1,3,1.8c.8.7,1.4,1.5,1.8,2.4s.7,1.9.9,2.9.2,2.1.2,3.4v20.2h-11.9v-20.2c0-3.2-2-4.7-6-4.7s-6.7.2-11,.5v-7.4ZM619.9,591.7l-1.6,14c-.3,2.8-.9,5.1-1.8,6.9-2.9,6-9.2,9.6-19.1,10.8l-13.7,1.7v-7.6l9.5-1.2-8.4-24.8h11.9l4.8,13.8,2,8c1.5-1.4,2.5-3.9,2.9-7.3l1.6-14.4h11.8ZM639.2,623.5h-11.9v-31.8h11.9v31.8ZM647.9,591.6c1.6-.3,3.7-.4,6.2-.4s4.5.2,6.1.6c1.5.4,2.8.9,3.7,1.5s1.7,1.4,2.3,2.3,1,1.9,1.2,2.9.3,2.1.3,3.3v11.7c0,1.5-.1,3.1-.4,4.8-.2,1.7-.5,2.9-.7,3.8l-.3,1.3h-20.2v-7.3h9.3c.2-.8.4-1.7.4-2.6v-11.7c0-.9-.2-1.6-.7-2.2s-1.2-.9-2.3-.9-2.7,0-4.2.2h-.8c0,0,0-7.4,0-7.4ZM693,591.2c4.9,0,8.5.5,10.9,1.5,1.2.5,2.2,1.1,3,1.8.8.7,1.4,1.5,1.8,2.4.4,1,.7,1.9.9,2.9s.2,2.1.2,3.4v20.2h-11.9v-20.2c0-3.2-2-4.7-6-4.7s-7.9.2-12.8.6l-2.5.2v-7.3c4.9-.6,10.4-.9,16.5-.9ZM688.4,623.5h-11.9v-18.5h11.9v18.5ZM160.1,714.6v8.4c0,.8,0,2.4-.1,4.6v2.4c-.1,0,.2,0,.2,0,1.4-2.9,3.7-4.4,6.9-4.4s4.9.9,6.3,2.8,2.2,4.6,2.2,8.1v19.4h-6.5v-17.3c0-4.3-1.3-6.4-3.8-6.4s-3.1.8-3.9,2.3-1.2,4-1.2,7.5v14h-6.5v-41.3h6.5ZM181.6,728.3c2.7-1.8,5.8-2.7,9-2.7s5.7.9,7.4,2.6c1.7,1.8,2.5,4.4,2.5,7.9v19.8h-4.5l-1.3-4h-.2c-1.1,1.7-2.2,2.9-3.4,3.6-1.1.7-2.7,1-4.5,1s-4.1-.8-5.4-2.4c-1.3-1.6-2-4-2-7s.9-5.3,2.6-6.9c1.7-1.5,4.4-2.3,8-2.5l4.1-.2v-1.3c0-3-1.2-4.5-3.7-4.5s-4.1.7-6.7,2.2l-2.1-5.5ZM186,747.1c0,2.3,1,3.4,3.1,3.4s2.7-.5,3.6-1.6,1.3-2.5,1.3-4.3v-2.4h-2.5c-1.9.2-3.3.6-4.2,1.4s-1.4,2-1.4,3.6ZM219.4,725.7c2.7,0,4.8.9,6.3,2.8,1.4,1.9,2.2,4.6,2.2,8.1v19.4h-6.5v-17.3c0-2.2-.3-3.8-.9-4.8s-1.6-1.6-2.9-1.6-3.1.8-3.9,2.3-1.2,4-1.2,7.5v14h-6.5v-29.7h4.9l.9,3.8h.4c.7-1.4,1.7-2.5,3-3.3s2.7-1.1,4.3-1.1ZM243.5,725.7c2.2,0,4.1.6,5.9,1.8,1.7,1.2,3.1,3,4,5.3.9,2.3,1.4,5,1.4,7.9v.3c0,4.8-1,8.6-3.1,11.3s-4.9,4.1-8.5,4.1h-.2c-2.2,0-4.1-.6-5.9-1.9-1.7-1.2-3.1-3-4-5.3s-1.4-5-1.4-7.9v-.3c0-4.8,1-8.6,3-11.3,2-2.7,4.9-4.1,8.5-4.1h.2ZM246.9,734.3c-.8-1.4-2-2.2-3.7-2.2s-3,.7-3.7,2.1-1.2,3.7-1.2,6.6.4,5.2,1.2,6.7c.8,1.5,2,2.2,3.7,2.2s2.9-.7,3.7-2.2,1.2-3.7,1.2-6.7-.4-5.2-1.2-6.7ZM259.4,728.3c2.7-1.8,5.8-2.7,9-2.7s5.7.9,7.4,2.6c1.7,1.8,2.5,4.4,2.5,7.9v19.8h-4.5l-1.3-4h-.2c-1.1,1.7-2.2,2.9-3.4,3.6-1.1.7-2.7,1-4.5,1s-4.1-.8-5.4-2.4c-1.3-1.6-2-4-2-7s.9-5.3,2.6-6.9c1.7-1.5,4.4-2.3,8-2.5l4.1-.2v-1.3c0-3-1.2-4.5-3.7-4.5s-4.1.7-6.7,2.2l-2.1-5.5ZM263.9,747.1c0,2.3,1,3.4,3.1,3.4s2.7-.5,3.6-1.6,1.3-2.5,1.3-4.3v-2.4h-2.5c-1.9.2-3.3.6-4.2,1.4s-1.4,2-1.4,3.6ZM297,725.7c.9,0,1.6,0,2.2.2l-.5,7.6c-.5-.2-1.1-.3-1.9-.3-2.1,0-3.7.7-4.8,2-1.2,1.3-1.7,3.2-1.7,5.6v15.1h-6.5v-29.7h4.9l1,5h.3c.8-1.7,1.8-3,3-4,1.2-1,2.6-1.5,4.1-1.5ZM318.7,714.6v8.4c0,.8,0,2.4-.1,4.6v2.4c-.1,0,.2,0,.2,0,1.4-2.9,3.7-4.4,6.9-4.4s4.9.9,6.3,2.8,2.2,4.6,2.2,8.1v19.4h-6.5v-17.3c0-4.3-1.3-6.4-3.8-6.4s-3.1.8-3.9,2.3-1.2,4-1.2,7.5v14h-6.5v-41.3h6.5ZM340.1,728.3c2.7-1.8,5.8-2.7,9-2.7s5.7.9,7.4,2.6c1.7,1.8,2.5,4.4,2.5,7.9v19.8h-4.5l-1.3-4h-.2c-1.1,1.7-2.2,2.9-3.4,3.6-1.1.7-2.7,1-4.5,1s-4.1-.8-5.4-2.4c-1.3-1.6-2-4-2-7s.9-5.3,2.6-6.9c1.7-1.5,4.4-2.3,8-2.5l4.1-.2v-1.3c0-3-1.2-4.5-3.7-4.5s-4.1.7-6.7,2.2l-2.1-5.5ZM344.5,747.1c0,2.3,1,3.4,3.1,3.4s2.7-.5,3.6-1.6,1.3-2.5,1.3-4.3v-2.4h-2.5c-1.9.2-3.3.6-4.2,1.4s-1.4,2-1.4,3.6ZM377.9,725.7c2.7,0,4.8.9,6.3,2.8,1.4,1.9,2.2,4.6,2.2,8.1v19.4h-6.5v-17.3c0-2.2-.3-3.8-.9-4.8s-1.6-1.6-2.9-1.6-3.1.8-3.9,2.3-1.2,4-1.2,7.5v14h-6.5v-29.7h4.9l.9,3.8h.4c.7-1.4,1.7-2.5,3-3.3s2.7-1.1,4.3-1.1ZM402,725.7c2.2,0,4.1.6,5.9,1.8,1.7,1.2,3.1,3,4,5.3.9,2.3,1.4,5,1.4,7.9v.3c0,4.8-1,8.6-3.1,11.3s-4.9,4.1-8.5,4.1h-.2c-2.2,0-4.1-.6-5.9-1.9-1.7-1.2-3.1-3-4-5.3s-1.4-5-1.4-7.9v-.3c0-4.8,1-8.6,3-11.3,2-2.7,4.9-4.1,8.5-4.1h.2ZM405.5,734.3c-.8-1.4-2-2.2-3.7-2.2s-3,.7-3.7,2.1-1.2,3.7-1.2,6.6.4,5.2,1.2,6.7c.8,1.5,2,2.2,3.7,2.2s2.9-.7,3.7-2.2,1.2-3.7,1.2-6.7-.4-5.2-1.2-6.7ZM438.1,755.9h-5l-1.3-3.8h-.3c-1.5,2.9-3.7,4.4-6.7,4.4s-5-1.3-6.6-4c-1.6-2.7-2.4-6.5-2.4-11.3s.8-8.6,2.4-11.3c1.6-2.7,3.9-4.1,6.8-4.1s5.2,1.5,6.7,4.4h.2c-.3-2.3-.5-4.3-.5-5.9v-9.5h6.5v41.3ZM432,741.2c0-3.2-.4-5.4-1.2-6.8-.8-1.4-2.1-2.1-3.8-2.1s-2.6.8-3.4,2.3-1.2,3.8-1.2,6.6.4,5.1,1.2,6.6c.8,1.5,2,2.2,3.6,2.2s2.8-.6,3.5-1.8c.8-1.2,1.2-3.2,1.3-6.1v-.9ZM462.6,754.3c-2.2,1.4-5,2.1-8.3,2.1s-6.8-1.3-9-4-3.2-6.4-3.2-11.3,1-8.7,3-11.4c2-2.7,4.7-4.1,8.1-4.1s6.1,1.2,7.9,3.6c1.9,2.4,2.8,5.7,2.8,9.9v3.9h-15.3c0,2.3.6,4.1,1.6,5.4,1,1.3,2.5,1.9,4.3,1.9,2.7,0,5.4-.8,8-2.3v6.3ZM456.6,733.1c-.8-1.1-1.9-1.6-3.3-1.6s-2.5.5-3.2,1.6-1.2,2.6-1.3,4.6h9.1c0-2-.4-3.5-1.2-4.6ZM481.2,725.7c.9,0,1.6,0,2.2.2l-.5,7.6c-.5-.2-1.1-.3-1.9-.3-2.1,0-3.7.7-4.8,2-1.2,1.3-1.7,3.2-1.7,5.6v15.1h-6.5v-29.7h4.9l1,5h.3c.8-1.7,1.8-3,3-4,1.2-1,2.6-1.5,4.1-1.5ZM508.7,755.9h-6.6l-9-29.7h6.8l4.6,16.9c.5,2.2.8,4.2,1,6.1h.1c0-1.7.4-3.7,1-6.1l4.6-16.9h6.8l-9,29.7ZM538.9,754.3c-2.2,1.4-5,2.1-8.3,2.1s-6.8-1.3-9-4c-2.2-2.6-3.2-6.4-3.2-11.3s1-8.7,3-11.4c2-2.7,4.7-4.1,8.1-4.1s6.1,1.2,7.9,3.6c1.9,2.4,2.8,5.7,2.8,9.9v3.9h-15.3c0,2.3.6,4.1,1.6,5.4,1,1.3,2.5,1.9,4.3,1.9,2.7,0,5.4-.8,8-2.3v6.3ZM532.9,733.1c-.8-1.1-1.9-1.6-3.3-1.6s-2.5.5-3.2,1.6-1.2,2.6-1.3,4.6h9.1c0-2-.4-3.5-1.2-4.6ZM550.7,714.6v8.4c0,.8,0,2.4-.1,4.6v2.4c-.1,0,.2,0,.2,0,1.4-2.9,3.7-4.4,6.9-4.4s4.9.9,6.3,2.8c1.5,1.9,2.2,4.6,2.2,8.1v19.4h-6.5v-17.3c0-4.3-1.3-6.4-3.8-6.4s-3.1.8-3.9,2.3-1.2,4-1.2,7.5v14h-6.5v-41.3h6.5ZM572.1,728.3c2.7-1.8,5.8-2.7,9-2.7s5.7.9,7.4,2.6c1.7,1.8,2.5,4.4,2.5,7.9v19.8h-4.5l-1.3-4h-.2c-1.1,1.7-2.2,2.9-3.4,3.6-1.1.7-2.7,1-4.5,1s-4.1-.8-5.4-2.4c-1.3-1.6-2-4-2-7s.9-5.3,2.6-6.9c1.7-1.5,4.4-2.3,8-2.5l4.1-.2v-1.3c0-3-1.2-4.5-3.7-4.5s-4.1.7-6.7,2.2l-2.1-5.5ZM576.5,747.1c0,2.3,1,3.4,3.1,3.4s2.7-.5,3.6-1.6,1.3-2.5,1.3-4.3v-2.4h-2.5c-1.9.2-3.3.6-4.2,1.4s-1.4,2-1.4,3.6ZM617.2,755.9h-5l-1.3-3.8h-.3c-1.5,2.9-3.7,4.4-6.7,4.4s-5-1.3-6.6-4c-1.6-2.7-2.4-6.5-2.4-11.3s.8-8.6,2.4-11.3c1.6-2.7,3.9-4.1,6.8-4.1s5.2,1.5,6.7,4.4h.2c-.3-2.3-.5-4.3-.5-5.9v-9.5h6.5v41.3ZM611.1,741.2c0-3.2-.4-5.4-1.2-6.8-.8-1.4-2.1-2.1-3.8-2.1s-2.6.8-3.4,2.3-1.2,3.8-1.2,6.6.4,5.1,1.2,6.6c.8,1.5,2,2.2,3.6,2.2s2.8-.6,3.5-1.8c.8-1.2,1.2-3.2,1.3-6.1v-.9ZM632.9,725.7c2.2,0,4.1.6,5.9,1.8,1.7,1.2,3.1,3,4,5.3.9,2.3,1.4,5,1.4,7.9v.3c0,4.8-1,8.6-3.1,11.3s-4.9,4.1-8.5,4.1h-.2c-2.2,0-4.1-.6-5.9-1.9-1.7-1.2-3.1-3-4-5.3-.9-2.3-1.4-5-1.4-7.9v-.3c0-4.8,1-8.6,3-11.3,2-2.7,4.9-4.1,8.5-4.1h.2ZM636.4,734.3c-.8-1.4-2-2.2-3.7-2.2s-3,.7-3.7,2.1-1.2,3.7-1.2,6.6.4,5.2,1.2,6.7c.8,1.5,2,2.2,3.7,2.2s2.9-.7,3.7-2.2,1.2-3.7,1.2-6.7-.4-5.2-1.2-6.7ZM654.7,755.9h-6.5v-41.3h6.5v18.4l-.3,6.7h0l2.8-4.5,6.6-9h7.3l-9.4,12.9,10,16.8h-7.5l-6.8-12-2.8,2.8v9.2ZM693,754.3c-2.2,1.4-5,2.1-8.3,2.1s-6.8-1.3-9-4-3.2-6.4-3.2-11.3,1-8.7,3-11.4c2-2.7,4.7-4.1,8.1-4.1s6.1,1.2,7.9,3.6c1.9,2.4,2.8,5.7,2.8,9.9v3.9h-15.3c0,2.3.6,4.1,1.6,5.4,1,1.3,2.5,1.9,4.3,1.9,2.7,0,5.4-.8,8-2.3v6.3ZM687,733.1c-.8-1.1-1.9-1.6-3.3-1.6s-2.5.5-3.2,1.6-1.2,2.6-1.3,4.6h9.1c0-2-.4-3.5-1.2-4.6ZM711.6,725.7c.9,0,1.6,0,2.2.2l-.5,7.6c-.5-.2-1.1-.3-1.9-.3-2.1,0-3.7.7-4.8,2-1.2,1.3-1.7,3.2-1.7,5.6v15.1h-6.5v-29.7h4.9l1,5h.3c.8-1.7,1.8-3,3-4,1.2-1,2.6-1.5,4.1-1.5Z"/>
  <path class="st2" d="M494.6,494.9c-1.4.6-2.3,1.2-3.3,2-2.2,1.5-4.6,2.6-7.1,3.7l-5.6,2.6c-1.7.8-3.4,1-5.4,0,7.8-17.1,18.2-33.3,32.8-45.4,8.5-7,17.8-12.3,28.9-15.6-.8,12-9.3,27-17.5,35.1l-5.3,5.2-2.1,2.1c-.9.9-2.2,1.7-3.3,2.5-3.9,2.8-7.6,5.7-12.1,7.8ZM378.1,479.5c-5.1-7.3-10.6-13.7-17.2-19.7-9.1-8-19.2-14.1-31.4-17.6,2.4,16.7,12.4,31.6,25.1,42.1,7.7,6.5,16.2,11.4,25.4,15.6,3.9,1.8,7.3,4.3,11.7,4.3-4-9.3-8.4-17.1-13.7-24.9ZM264.4,307.2c10.2-17,16.1-35.5,13.9-55.8-16.8,9.9-26.1,26.6-30.6,44.9-2.8,12.1-3.8,24.2-2.9,36.6,2.4-1.4,3.3-3.1,4.7-5,5.6-6.7,10.5-13.3,15-20.6ZM618.2,302.2c-3.7-20.2-13.3-39.8-31.7-50.8-1.2,10.7,0,20.7,2.6,30.6,2.4,8.7,5.9,16.5,10.4,24.3.7,1.7,1.5,3.4,2.8,4.7,9.4,9.7,8.9,14.6,17.7,22.1.7-10.7,0-20.7-1.8-30.9ZM290.4,422.6c.6-20-10.5-39.8-24.6-53.9-3.4,9.7-3.9,19.3-2.5,29,1.3,8.4,3.9,15.9,7.5,23.6,3.9,8,8.9,15.8,14.3,22.7s6.5,3.5,8,3.9l.3-3.7c.7-8.9-2.1-13.3-2.9-21.7ZM328.5,452.2c-6.8-16.8-15.4-30.3-30.3-40.8s-2.4-1.8-3.7-2.3c-3.7,27.4,13.1,52.8,33,69.8,3,.4,5.8.7,8.8.7-1.9-10.1-4.4-18.5-7.8-27.3ZM596.5,415.2c5.7-14.7,7.6-31.2,2.2-46.5-6.3,6.3-11.4,12.8-15.6,20.4-4.9,8.8-7.9,18.2-8.6,28.2-.2,5.3-1,10.3-2.2,15.5-1.2,5-1.7,9.8-.7,15,2.7-.8,4.7-1.7,7.1-3.1,7.6-9,13.6-18.7,17.8-29.5ZM549.5,466.1c1-1.2,2.5-2.3,3.4-3.6l6.3-9.1c1.3-1.9,2.4-4,3.2-6.2,6.6-10.9,9.7-25.3,7.6-38.4-14.6,8.8-24.1,21.7-31,37s-5.1,12.7-7.5,19.3-2.4,9.3-3.1,14.3l6-.3c2-.1,3.8-1.2,5.2-2.6l6.4-6.6c1.3-1.3,2.3-2.5,3.4-3.8ZM279.5,246.2c1-.5,2.1.3,2.3,1.1l.7,2.7c7.7-4.2,14.6-9.1,20.9-15.2,6.8-6.7,12.4-14.1,16.4-23.3-32.1.4-57.1,24.7-71.5,51.5,2.5,0,4.5-.5,6.7-1.3,5.2-1.9,5.7-1,8.5-3.7,5-4.7,10-8.7,16-11.9ZM264.4,362.8l2.8.9c4-14.8,4.5-35.8-1.8-50.4-21.4,21.1-22.4,52.7-16.1,79.9,1.6,1.2,3,2.1,4.9,3,2.1-3.5,3.6-6.7,4.2-10.5l2-12.3c.6-3.9,2-7.4,3.9-10.5ZM604.3,260.2c3.9,1.4,7.5,2.7,12.1,2.9-15.3-27.4-38.7-50.8-71.6-51.6,6.1,13.7,14.7,22.2,25.7,31.3l11.8,7.5.5-3.1c.1-.6,1.9-1,2.5-.7,5.7,2.4,10.2,6.5,14.6,10.7s2.8,2.2,4.3,3.1ZM271,217.4c3.4-12.1,3.9-24.5,1.8-37.4-13.9,9.6-22.3,25.2-26.2,41.2-2.9,12.9-3.6,25.9-1.4,39,2.5-2.9,6.6-11.2,8.4-13.1,8.3-8.4,14.2-18.2,17.4-29.7ZM610.6,396.2l4.4-3.2c6.6-26.4,5.1-59.4-16.1-79.8-1.9,4.6-4.1,16.2-4.4,20.6-.5,7.8,0,22.7,2.9,29.8l2.7-.4c4.7,6.3,4.5,15.2,5.6,22.6.6,3.8,2.9,6.8,4.7,10.4ZM619.4,260.1c2.1-12.9,1.4-25.3-1.2-37.7-3.8-16.7-12.3-32.6-26.5-42.6-3,18.5-.3,34.3,6.8,51.1s2.5,4.4,4.2,6.2c3.4,3.4,6.5,6.9,9.2,11.2l7.5,11.8ZM587.9,222c0-.3,0-1.1-.2-1.4-16-24.4-42.6-47.1-74.1-45.1,2.4,5.7,12.3,17.4,16.7,21.1l2.3,1.9c4.2,3.5,8.8,7,14,9-.8-.3,14.1,2.8,14.9,3,8.9,1.8,17.6,6.3,24.8,11.5s1.6.3,1.7,0ZM351,175.5c-20.3-1.2-38.7,7.4-53.4,20.5-8.3,7.5-15.3,16-21.3,25.7.8.7,2,.4,2.8-.2,10.8-8.1,26-13.3,39.4-13.8,13.6-8.1,24.9-18.2,32.5-32.1ZM372.5,500.6c-3.4-1.6-6.5-3.9-9.8-5.8-3.7-2.4-7.1-4.8-10.5-7.7-14.8-4.8-30.3-6.2-45.8-2.2,4,5.7,8.9,9.5,14.3,13.2,14.1,8.6,30.2,13,46.7,12.8,6.5-.4,12.5-1,18.4-3.9l-13.3-6.3ZM630.4,316.3c4.5-8.8,8-17.7,9.7-27.6,2.8-15.4,1.3-32.1-6.7-46.4-9,13-15.4,29.5-14.8,45,1.9,6.7,3.6,13.2,4.2,20.2l1.6,18.9c2.7-3.3,4.1-6.6,5.9-10.1ZM246.6,286.5c-.6-8.4-2.3-16.4-5.1-24.3s-4.2-9.9-6.9-14.7-1.8-3.6-3.5-5c-14.7,25.6-7,60.3,8.8,83.4l2-19.6c.7-7,2.3-13.4,4.6-19.9ZM279.9,209.3l10.4-11.1c3.9-4.2,8.1-7.8,12.9-11.2,8.7-13.3,13.8-28.5,13.9-44.9-21.3,10-34.5,30.7-39.1,53l-.8,9.2c-.3,3.4-.8,6.5-1.4,10.1.9-.4,1.8-1.3,2.4-2.3l1.7-2.8ZM508.2,510.3c19.3-1.5,37.4-10.4,50.3-25.4-13.7-3.6-27.7-3.2-41.1.5-1.8.5-3.8.8-5.2,1.9-9.1,7.3-18.8,13.2-29.9,18,8.4,4.2,16.9,5.2,25.9,4.9ZM587.2,203.4l-.7-9.6c-4.8-21.2-18.2-42.2-38.9-51.6.2,15.6,4.8,32.4,14.2,44.8,8.5,6.7,16.2,13.9,22.8,22.5,1.3,1.7,1.8,4.2,4.1,4.7l-1.6-10.8ZM641.5,353.9c2.6-7.1,4.2-14.2,4.7-21.7.4-8-.2-15.7-2.9-23.7-11.1,10.5-18.7,23.7-22.7,38,2.6,13.9,1.5,26.7,0,40.5,2-1,2.8-2.8,4.2-4.6,7.1-8.8,12.8-18,16.6-28.5ZM242.7,360.2v-11.6c-.2-8.5-2.7-16.3-7.4-23.3-4-6-8.5-11.3-14-16.7-5.8,16.8-3,35,4,50.7,3,6.8,6.9,12.8,11.1,18.9s4.4,6.7,7.7,9.3c-1.4-9.5-1.6-18.1-1.5-27.2ZM311.3,467.7c-7.9-9-5.6-9.6-18.3-15.7s-22.2-7.6-34.1-7.8c2,5,4.5,8.7,7.5,12.6,7.6,9.1,16.9,16.5,28,21.2s6.8,3.1,10.3,3c5.8-.1,11-1.2,17-1.9-1.3-2.1-3.2-3.1-4.7-4.8l-5.6-6.5ZM569.6,478c15.3-6.4,29.7-18,36.2-33.8-16.1.5-32.2,4.8-45,14.3l-6.5,8.1c-3.5,4.4-7.3,8.2-11.4,12.2,6,.8,11.4,2.4,17.4,2.6,3.2-.4,6.3-2.5,9.2-3.3ZM610.2,431.7c12.2-10.5,22.7-26.4,24.1-43.2-11.5,4-22.9,9.1-29.9,19.1-2.6,4.4-4.7,8.8-6.8,13.6-3.3,7.6-7.2,14.3-12.1,21.4,1.8,0,12.3-1.7,12.7-1.9,4.6-2.4,8.3-5.5,12-9ZM267.8,422.8l-5.1-10.8c-3.5-6.7-8.5-12.1-15.1-15.9s-11.1-5.6-17.1-7.4c.9,9,3.8,16.7,8,24,6.5,11.4,17.1,20.7,27.9,28.1l12.5,1.6c-4.4-6.7-8-12.8-11-19.7ZM431.9,511.4c1-1,1.8-2.9,1.1-4-7-2.1-14.6-2.6-22-2.1-17,1.4-33.5,8.2-48.2,17,11.8,2.8,23.3,3.5,35,2.7,6.8-.4,12.8-1.9,19.4-4.2s10.7-5.2,14.8-9.4ZM345.9,171.3c7.4-6.4,13-14.2,17.3-22.9s1.8-3.6,2.4-5.8c-4.7-.1-8.5.6-12.8,2-10.8,3.6-20.7,9-29.5,16.3s-7.7,10.5-12.3,19.8c1.7,0,2.8-.6,4.4-1.4,9.5-5,19.8-7.3,30.4-8ZM542.2,162.3c-11.1-11.6-27.1-18.3-43.4-19.7,3.9,10.6,10.4,19.4,18.4,26.9s1.5,2,2.9,2c12.9.5,21.5,4.3,33.2,9.6-2.2-7.6-6.2-13.5-11.1-18.8ZM421.7,545.1c4.3-8.6,6.8-17.7,8.7-27.4-8.1,5.6-16.7,9-26.2,10.3l-6.6.9c-3.5,4.8-6.5,9.9-9,15.4l8.1,3.1c4,1.5,14.4,6.5,18.2,4.8,3.2-1.4,5-4.3,6.8-7ZM481,541.5l-6-12.9c-14.3-1.3-25.4-4.4-37-13.5,1.4,4.4,3.3,8,5.5,11.7s5.9,10.1,9.2,15.1c4.1,6.3,11.3,14.5,19.6,10s8.1-4.7,9.5-7.9-.6-1.9-.9-2.6ZM387.2,474.5c1.7,6,5.1,10.4,8.1,15.2s7.4,9.2,13.7,10.6c3.6.8,7.5,1.3,11.3,1.3h10.5c-.2-21.1-27.2-28.6-43.7-27.1ZM474.9,520.4l-6.5-4.6c-3.9-2.8-8.9-6.9-13.7-7.2s-1.7-3.7-6.3-3.3-7.4.7-11.3,1.8c12.6,21.6,50.7,20.2,71.8,15-4-2.9-7.9-4.7-12.1-6.7-7-3.4-14-6-21.8-7.6.7,2.9,7.3,4.7,4.3,7.9l-4.4,4.7ZM471.1,493.5c4.9-5.2,8.1-11.9,10.7-18.6-10.8-1.2-24.8,1.8-33.4,8.4l5.1,3.2c1.9,1.2,3,3.1,4,4.9,3.8,1.5,7.7,1.2,8.6,6.7,2.1-.9,2.7-2.9,5-4.6ZM439.5,493.9c-1.1,2.6-1.5,4.7-1.7,7.4,3.9.2,7.2.3,10.9.2-1.3-1.5-3.7-1-4.8-2.3l-4.3-5.2Z"/>
  <path class="st3" d="M350,224.7c.5,2.9-.8,5.5-.8,7.8-15.7,3.7-31.2,7.7-46.7,12.8s-.7,2.1-.3,2.9c10.7-2.7,36.7-12.1,46.6-11.9,1,12.9,6.9,23.3,13,34.6-.4.3-30.9,4.3-29.6,5.9,1.2.6,3,1.5,4.2,1.3,8.1-1.3,19.8-3.6,27.7-4.3,2.1,1.4,4.1,3.4,4.9,5.8l-17.5,3.2c13.9,5.7,27.9,9,41.9,12.5,2.7.5,6.1,1.3,8.6,2.5,3.9.1,7.4,2.6,12.9,2.8.8.2,2.1.6,2.9.7l.2.9c.8,0,2.7-.3,3.5-.1,3.1,2,7.4,1.6,10.9,2.7,2.9.5,8.2,1.8,11,1.8,11,2.8,22.6,4.5,33.9,5.8,1.3.9,8.9,1.6,10.5,1.9,2.7.3,5,1.2,7.7,1,.2.2,1.1.7,1.6.8,5,.6,11.8,1.7,16.6,2.1,2.4.9,12.1,6.2,12,9-50.7-4.2-102-14.9-150.5-30.1-24.2-7.6-61.6-22.4-83-35.3,0,0-3.6-2-3.6-2-.7-.4-2.2,1.2-2.2,1.9,31.6,18.9,66.9,31.9,102.1,42.5,44.8,13.5,93.7,21.9,140.4,26.2,3.9,5.3,7.3,11.3,7.8,17.8-35.7,14.9-73.9,25.8-112,32.3-3.3-1.7-6.7-3.9-9.5-6.2,1.1-1.2,5.6-1,7-1.3,4.4-1.4,10.7-1.1,13.9-3.2-1.6-1.1-20.3-3.7-22.5-4.2-9.2-1.5-18.2-3.9-27.5-6.2-27.3-7.4-108-27.8-113.6-58,6.4-16.6,10-28.5,9.8-47.2,8.8-4.2,18.7-12.7,26.3-19,12.5-2.5,28.7-8.4,41.2-10.6ZM302.4,306l6,3.1,9.4-17.9-16.3-8.5-1.2,6.1,8.7,4.6-6.5,12.5ZM321.9,315.6c3,1.5,7.4,3.8,10,.2,0,0,10.3-13.1,10.3-13.1l-22.9-10.7-1,6.2,13.8,6.5-5.1,6.5-4.1-1.8-1,6.2ZM317.5,300.6l-8,17.2,6.2,2.9,8-17.2-6.2-2.9ZM450.4,366.7c5.5.8,5.9,1.6,11.3-1-34.2-5.6-70.7-13.4-103.6-24.3-25-8.4-50.2-18.5-72.1-33.4-2.8-1.9-5.8-3.9-8.6-6s-1.3.4-1.5.8-.2,1.4.2,1.7c0,0,5.3,3.9,5.3,3.9,18.7,13.1,40.2,22.7,61.5,30.7,34.5,12.5,71.2,21.5,107.4,27.6ZM343.1,324.9l7.8-18.5-7.7-3.2c-.4,1.8,0,3.9-.6,5.3l-5.8,14,6.3,2.5ZM362.2,332.4l5-13.2c.8.3,2.3.8,2.7.4l3.7-4.5-21.1-8-.4,6.3,8.8,3.3-5,13.3,6.3,2.3ZM391,341.7l6.5,1.8,5.6-19.5-20.7-5.9-.3,6.2,12.8,3.7-3.9,13.7ZM412.6,346.7c2.3.4,4.5-1,5.4-3l6.9-15.1-13.1-2.7.9-5.1-6.6-1.3-2.2,11,11.9,2.5-3.4,7.5-6.8-1.2.6,6.2,6.3,1.3ZM437.5,351.8c3.5.5,9.8,2.9,11.6-1.8,0,0,6.7-15.3,6.7-15.3l-13.1-2.5.8-5.1-6.6-1.2-2,11,11.9,2.3-2.8,6.8c-.7,1.5-6.1-.4-7.2-.3l.7,6.3ZM381.2,327.8l-2.9,10.3,6.6,1.9,2.9-10.3-6.6-1.9ZM431.9,341.8l2.2-11.3-8.1-1.6c.5,6.9.6,4.4-.7,11.5l6.6,1.4ZM453,354.7l19.2,3.2,3-5.5-3.1-.7,2.2-13.9-17.7-2.9.7,6.2,9.3,1.6-1.3,8-9.7-1.6-2.6,5.7ZM535.4,271c5.3.7,34.4,4.4,48.8,8.5.7,1.4,1.2,3.8,1.2,5.4-19-4.1-43.8-8.1-62.8-8.7-4.4-.8-9-.6-13.3-1.9,0,0-22.7-.9-22.7-.9-4.2.6-8.2,0-12.3,0-.8-.5-1.3-.2-2.2,0s-2.6.4-3.7.5c-1-.3-2.5-.7-3.4,0-1.5-.9-3.4-1.1-4.8-.5-3.3,0-8.9-.5-12,.5-9.1-.3-19.3.6-28.5.8-8.2-.3-23.8,1.9-32.4,3-1,0-6.4-4.9-6.1-6,44-5.3,92.7-5.9,137-2.3,0,0,12,.9,17.3,1.6ZM520.4,266.7c-47.2-3.5-95-4.2-141.8,2.5-9.9-8.1-17.5-23.9-16.1-36.8,57.5-12.6,117.7-15.1,175.6-3.2.9-.7,1.1-1.8.7-2.9-58.2-11.3-117.9-9.3-175.7,2.7-.7-2.9,2.3-6.1,3.9-8.2,7.6-.3,26.9-4.7,34.3-5.4,3.3-.1,10.6-.7,13.9-1.2,1.2-.1,6.9,1,9.9-.5,5.4-.2,10.7-1.4,16.2-.5,35.2,0,68.1,1.3,102.9,8.4,3.8,2.3,6,7.3,8.6,10,1.5,1.6,3.7,4,5.3,5.4,0,0,9.2,7.8,9.2,7.8,4.1,3.5,8.7,6.1,13.6,8.6s1.5,1.5,1.4,2.4c-1.1,9.6,1,11.8.7,20.1-6.3-1.4-41.2-7.1-45.9-7.6-3.7-.7-17-1.7-17-1.7ZM445,249.1l-1.6,6h8.2c1.9-.2,3.7-2,3.6-4l-.2-16.4-11.1.2,1.8,5.7,2.6.4.2,7.9-3.5.2ZM477,255h6.8c0,0,.3-20.2.3-20.2l-18.4-.2,1.6,6,9.9.2-.2,14.2ZM435.3,255.4l6.7-.2-.6-20.2-8.3.3c.3,1.7,1.5,3.3,1.5,4.7l.6,15.4ZM497.8,255.7c3.4.3,8.2.8,9.3-3.6,0,0,4.6-16,4.6-16l-25.3-1.3,1.4,6.1,15.2.8-2.2,8h-4.5c0,0,1.5,6,1.5,6ZM428.1,255.6l-.7-14,2.5-.4,1.7-6-22.5,1.1,2.1,5.9,9.5-.4.7,14.1,6.8-.3ZM401.7,257.1l6.8-.5-1.3-20.2-18.4,1.2,2.1,5.9,9.9-.6,1,14.1ZM519.9,257.3l1.9-20.1-8.3-.7c.1,1.8,1.1,3.7,1,5.2l-1.3,15.1,6.7.6ZM521.5,257.3l19.3,2.7,2.8-5.6-3.1-.7,1.9-13.9-17.8-2.5.9,6.2,9.3,1.3-1.1,8-9.7-1.3c-.9,1.8-1.8,3.7-2.5,5.8ZM542.3,260.1l18.9,4.5,3.3-5.3-3-1,3.2-13.7-17.5-4.1.3,6.2,9.1,2.2-1.8,7.9-9.5-2.2c-1.2,1.9-2.2,3.6-2.9,5.5ZM493.8,262.6l1-18.8-6.8-.4-1,18.8,6.8.3ZM408.9,385.2c8.5,3.9,18.9,13,26.4,18.8,0,0,7.7,6,7.7,6,2.9,2.9,7.6,4.3,9.8,7.7-36,8.6-73,11.6-110,10.8-6.9-6.6-10.1-18-6.4-27.1,1.8-5,3.3-10.6,8-13.5,21.5,1.4,43.2.5,64.6-2.7ZM406,404.4c0,.3-1.3.4-1.4,0l-2-6.3-7.2.7,6.2,19.7c23.6-2.2,19.4.2,23.1-22.5l-6.9.6-2.4,14.5-8.2.8c-.6,0-1.2-2.1-.8-2.5l5.5-.7,2-11.8-6.8.7-1.1,6.7ZM388,419.2l6.7-.4-1-20.2-8.3.5c.5,2.1,1.6,3.5,1.7,5l.9,15ZM351.7,419.7h6.7c0,0,.4-20.1.4-20.1l-18.4-.3,1.6,6,9.8.2v14.2ZM376.8,405.4v8.1c.1,0-5.7.2-5.7.2l1.6,6c3.7-.2,11.1,1,11-4.8,0,0-.3-15.6-.3-15.6l-22.8.4,1.5,5.6,1.8.8-2.8,13.8h7c0,0,3-14.3,3-14.3h5.6ZM537.7,351.5c3.1,13.9.5,29.3-5.6,41.9-.7,1.2-1.3,1.2-2.4,1.3-17.9,6.1-40.5,14.2-58.5,19-12.5-5.4-23.8-15.9-34.5-24.2-1.4-1.2-7.4-4.7-8-6.6,38-6.3,72.9-18,109-31.4ZM513.5,378.2c-.2,1.1-.6,1.4-1.4.6,0,0-3.4-5.5-3.4-5.5l-6.7,2.4,10.7,17.6c22.2-7.5,19-4.6,17-27.3l-6.6,2.2,1.1,14.6-6.8,2.5c-1.6.5-2.2-.6-2.3-2l5.2-1.9-.9-11.9-6.5,2.2.5,6.4ZM487.8,395l.3,6.2,18.6-5.8.2-6.3-3.1.7-4.2-13.4-17.1,5.4c1,1.2,2.6,5.5,4.5,4.9,0,0,7.9-2.5,7.9-2.5l2.4,7.7-9.4,3.1ZM471.1,406.1c1.8-.5,2.7-2.4,2.2-4.1l-2.9-10.4,5.7-1.7,3.9,13.6,6.5-1.9-5.6-19.4-22.9,6.6,3.2,5.2,2.7-.3,2.1,7.5-3.3,1.1v6.3s8.4-2.4,8.4-2.4ZM569.3,383.4v-57c0-1.9-1.5-3.3-3.2-3.4-10.2-.5-18.1-1.6-27.8-2-.2,1.1,4.3,7.2,5.3,7.8l18.5,1.2c.5,1.6-.5,2.7-2,2.8-4.6-.2-10.4-.8-14.9-.8,0,2.4,1.1,3.5,2.3,7.8s.8,2.2,1.5,3c3.7-1.2,9.2-4,12.9-5.8,1.5-.6,2.5,1,1.7,2.1-4.5,2.5-9.3,5-14,6.5.9,6,1.8,12,1.9,18.2,0,7.1-1.9,15.2-2.8,22.3,2.2-.6,12.2-5.3,14.5-6.3.7.3.9,2.5.3,2.8-1.7.7-14.8,7.1-16.3,7.3-1.6,3-3.1,6.2-3.7,9.5,4-.9,26-12,26-16.2ZM310.2,385.1l-29.7-5.5c0,.8.3,1.8.8,2.5,5.3,8.6,6.3,10.6,9.8,20.5,3.9.7,7.4,3.7,10.2,6.2,6.8,5.1,12.3,11.6,18,17.6,1.7,0,4.4.3,6,.2-4.4-14-3.1-26.4,2.8-39.3l-18-2.4ZM463.5,423.6c-1.8-.9-5.3-2.8-7.1-3.8-35.5,9.3-73.3,12.1-109.9,11.5.4,1.4,6.6,3.8,7.9,4.2.8-1.3,3.5-.1,4.5-.1,0,0,19.3,0,19.3,0,11.7-.2,22.9-1.4,34.4-1,11.1-1,34-5.9,45.4-6.6,2-.7,5.6-1.7,7.5-2.2-.4-.8-1.2-1.3-2.1-1.8ZM273.2,366.2c-.3,1.1-.7,2-1.3,2.4-.2,1.7,4.4,6.3,5.8,7.4,17.8,3.4,34.5,7.7,52.5,8.3,1.9-2,5.6-4.9,7-8.2-21.6-1.7-43-4.3-64.1-9.9ZM388.9,375.9c-8.8,1.5-20.4,1.2-29.3.8-2.5.4-12.1,5.8-12.4,8.3,17.8,1.3,39.3.3,57-2.1-.3-2.1-13.2-6.4-15.4-7ZM526.7,398.7c-12.6,4.5-38.1,12.9-50.9,16.9.7,2.2,10.7,4.5,12.9,4.6.3-.6,14.7-4.7,15.6-5,0,0,14.5-4.9,14.5-4.9,3.2-2.3,9.4-8.1,10-12.1-.6,0-1.4.3-2.1.5ZM322,429.7c-.3,1.8,1.3,3.5,2.6,4.5,1.5,0,4.9.4,6.2,0-.2-1.4-1.8-3.1-2.6-4.1l-6.2-.4Z"/>
  <path d="M650.3,320.1c-1.4-6.6-2.3-11.1-5.7-17.5-1-.9-2.9.9-3.7,1.5,0,.5-.3,1.5-.9,1.5,1.4-5.2,3.2-11.3,4.2-17.2,2.4-13.7,1.3-27.4-3.4-40.5-8.1-16.7-6.9-13.6-15.7-.9-1-27.8-8.7-59.9-36-72.7-1.8-.8-1,6.4-1.9,7.1-8.3-19.4-21.7-38.6-43.1-44.3-2.4,5.3.5,16.1.8,21.9-14.7-12.2-31.4-22.2-51.1-19.6,1.2,11.2,11.1,23.6,18.6,31.8-1.1.5-4.8.6-4,2.7,5.9,14.7,17.7,25.2,30.4,34l2.8,7.7c.5,1.4-.7,3.9-.8,5.3,6.1-.1,9,7.5,12.2,10.9,1.6,1.6,3.6,3.9,5.3,5.4,0,0,9.2,7.8,9.2,7.8,3,3.8,15,7.7,15,11-1.1,9.6,1,11.8.7,20.1.3,1.8,1.3,4.6,1.8,6.3,0,1.9.8,3.8,1.4,5.7,2.1,6.6,4.6,12.8,8.1,18.7,1,1.4,1.2,2.9.5,4.6-6.3,18-6.7,37.6-1,56-9.7,10-16.9,21.8-21.1,35.2-14.9,6.8-25.6,19.7-34.2,33.4-21.9,7.7-38.9,17.8-52.9,36.8-1.4-1.2-2.9-1.7-5.1-2.3,14.1-19.4-16.6-27.7-22.9-42.8-6.2.3-31,4.5-36.9,5.5-.4,1.9-7.9,13.3-9,15.2-3,4.9-7-.7-10-2.5,4.3-4.1,7.3-7.1,10.4-11.6h-6.8c-.3,1.5-6.8,7-8.6,8.4-8.4-4.9-17.1-5.6-26.5-5.9-7-.2-19.2.4-24.4-5.4-9.6-5.6-14.3-19.6-10.1-30,1.8-5,3.3-10.6,8-13.5.4-1,1.6-3,2.8-2.9,8.6-11.3,28.7-13.6,41.7-9.1,2.2.5,15.1,4.8,15.4,7,1.7-.3,3.5,1.2,4.7,2.3,8.5,3.9,18.8,13,26.4,18.8,0,0,7.7,6,7.7,6,2.9,2.9,7.6,4.3,9.8,7.7,2.5.4,4.4,2.9,6.9,3.8,1.4.9,5.2,2.3,5.9,3.9,29.9,16.5,63,4.2,77.7-25.8.7-3.3,2.2-6.5,3.7-9.5.6-1.1,0-3.3,1.6-3.8,2.9-14.3,3.6-29.3.4-43.4-1.9-3-3.6-8.7-3.8-10.8-1-.5-1.6-2.1-1.7-3.2-1-.6-5.5-6.7-5.3-7.8-15.4-18.2-45.1-25.7-64.5-9.2l3.7.4c.2-1.5,3.4-2.8,4.9-3.3.9-.3,1.7,3.3,3.3,4.2.9-1.4-1.7-3.6-1-4.8.5-.9,2.7-1.5,3.8-1.1l2.7,7.5c7.4,1.3,16-1,22.8,3.3,2.4.9,12.1,6.2,12,9,1.2,0,3.2,2.6,3.2,3.3,3.9,5.3,7.3,11.3,7.8,17.8,4,14.9,2.4,33.5-6,46.3-.3,1.4-1,2.7-2.1,3.6-.6,4.1-6.9,9.9-10,12.5-7.8,7.8-19.3,11.6-30.2,9.6-2.2,0-12.2-2.4-12.9-4.6-9.7-2.5-19.8-11.4-28.2-17.3-3.8-2.8-7-6.1-10.9-8.9-1.4-1.2-7.5-4.7-8-6.6-27.6-19.6-62.6-32.5-91.4-6.9-1.4,3.3-5.1,6.3-7,8.2-.2,1.3-.9,2.6-2.1,3.2-5.9,12.8-7.2,25.4-2.8,39.3,1.1-.3,2.7,2.4,2.7,3.3.9,1,2.4,2.7,2.6,4.1,1.5.8,4.6,4.6,6,5.7-3.7-1.1-11.8-3-12.2-5.8-1.3-1-2.8-2.7-2.6-4.5-6.4-7.1-12.7-14.9-20.6-20.8-2.8-2.5-6.4-5.6-10.2-6.2-3-10.6-6.6-13.4-10.6-23.1-1.4-.3-2.3-2.4-2.8-3.6-1.3-1.1-6-5.7-5.8-7.4-.7,0-1.6-1.2-1.3-2.2,6-19,3.6-38.6-1.3-57.4,8.1-18.5,13.6-33.6,13.2-54.7,8.9-4.3,18.7-12.7,26.3-19,7.5-9,12.5-15.4,16.9-26.8.2-.5.9-1.4,1.4-1.7,12.4-8.1,22.3-19.1,29.2-32.2,1.6-2.6-2.7-2.9-4.1-3.5,8.1-9.2,16.4-19.5,18.7-31.8-19.6-3-36.7,7.5-51.3,19.5.5-3.5,2.8-20.3,1.4-21.7-20.9,3.9-35.8,25-43.5,44.1-1.4-2.3.5-8.7-3.9-7.1-24.5,15-33.4,44.8-34,72.4,0,0-6-9-6-9-1-1.7-3-1.8-4.2-.3-12.8,19.9-12.8,45.3-5.4,67,0,0,.7.4.7.4,0,1.7-.7.5-.7-.4-1.3-.2-1.8-2.1-3.5-2.2-1.4,0-2.8,3.3-3.2,4.6-1.6,5.3-2.7,10.5-2.9,15.8,0,1.2,0,2.5-.8,3.3v6.6c2.8,19.3,10.5,37.5,23,53.3-2,.8-10.7-5.7-10.7-.8.4,21.8,13.4,40,29.8,53.3.8.7.4.7-.3,1-1.3.5-2.1.6-1.7,2.4,6,21.3,27,35.8,47.1,43,15,21.2,41,29.5,66.2,29.9-3.2,3.3-14.8,5.7-11.5,10.4,12,2.6,24,4.2,36.4,4.3-2.1,5-9.6,13.3-7.1,18.5,8.8,1.8,18.4,7.7,27.2,8.9,16.7-1.7,18-25.6,22.5-38.2,7.8,13.3,14.8,34.3,31.3,38.6,7.6,1.3,14.3-4.3,19-10,3.6-5.3-3.9-12-4.9-17.8,14.2-.4,24.4-1.8,37.7-4.9.2-3.4-11.2-8.1-13.2-10,24.4-2,44.6-10.1,59.2-29.6,20.4-7.6,42.9-22.1,47.3-44.9l-2.6-1c16.6-13.8,30.8-32.5,30-54.7,0-3.6-7.9,2-10.5,1.8,11.9-15.4,20.8-33.4,22.6-52.2v-13.6ZM489.6,306.7c4.3-3.6,4.8,2.4,4.8,6-3.3,3.7-3.9-4.1-4.8-6ZM495.8,312.5c0-1.6-2-6.5-.2-7.6,4.1-1.1,2.5,4.6,3.1,7.2,0,.8-2.7,1.1-2.8.4ZM520.5,480.4c1.2-1.8,2.4-3.3,4.2-4.9,0,1.4,0,2.8-.6,4.1-.5.8-2.5,1-3.6.8ZM565.6,450.3c.5-1.2.8-1.7,1.5-2.9,1.3,1.9.5,2.9-1.5,2.9ZM616.8,268l-2.1,9.1-6.4-11.1,8.5,2ZM605.6,399.3c-.2-.5,0-1.6.2-2.3,1.1.5,1.3,1.7-.2,2.3ZM469.8,500.1l.6.7-1.2,1-.6-.7,1.2-1ZM477.3,513.7c-.6,1.3-1.5,2.3-2.8,3.6-5.4-4-11.1-8.1-16.9-11.4l5.8-7c4.7,6.1,8.9,9,13.9,14.8ZM423.5,464.7c5,1.8,3.1,6,8.8,7.7,4.6,1.4,3.8,3.4,5.7,5.5,1.1,1.2,3.1,1.4,4.6,2.2,2,1,2.1,4.9,6.6,6.8,2.9,1.2,5.2,3.1,6.3,6.3.8.6,7.7,1.9,7,3.5-1.9,2.4-6,7-8.1,9.2-3.1-2.1-2.3-6.2-4.9-6.9-7-1.8-5.6-6.8-12.8-9.9-5.2-2.3-1.7-4.4-9.1-6.7-1.1-1.3-2.2-3.5-3.5-4.7-6.9-3.2-6.4-4.1-11.4-9.4-2-2.1-11.6-4.6-10.5-7,12.9-19.4,8.4-.5,21.3,3.4ZM387.6,469.6c-2.2.8-3.6,1.4-5.2,2.9,3.7,11.2,9.5,22.7,19.9,29.7-2,.7-4,1.1-6.3,1.2-10.6-22.8-22.4-41.2-44-55.6,12,2.7,23.9-.8,35.2,3.6-4.5,5.7-4,12.7.4,18.1ZM393.2,454.9c2.5.5,4.8,3,6.5,4.7,2,3.6-8.4-.9-6.5-4.7ZM339.9,475.4c1.6,1.6,2.9,2.9,4.5,4.9-3.4,1-5.3-1.6-4.5-4.9ZM258.9,396.7l.6,2.9c-2-.8-2-1.6-.6-2.9ZM256.1,265.9l-6.3,11.2-1.9-9.2,8.2-2ZM407,452.3c-.9.8-1.3,1.1-2,1.9,0,0-3,3.2-3,3.2-1.2.8-2.6-.7-2-2l3.9-5.3c1.4.5,2.2,1.1,3.1,2.1ZM402.5,449.4c-1.1,1.9-2.4,4-4.1,5.8-.6.6-2.7-1.4-2.3-2.1l3.5-5.3c.7-1,3,.4,2.9,1.7ZM398.9,447c-.7,1.4-1.8,2.9-2.7,4.5-1.3,2.6-4.5.8-3.1-1.4l2.6-5.1c.8-.6,3.8.9,3.2,2ZM394.3,443.6c1.7,1.2-2.2,6.1-2.5,7.4l-3.6-1.5c-.4-1.6,1.9-6,2.4-7.5,0,0,3.7,1.6,3.7,1.6ZM385.1,440.1l4.4,1.4-2.8,6.7c-4.7,1.8-1.7-5.7-1.6-8.1ZM380.3,439.5c1.1-.1,2.6,0,3.7.7-.3,2.2-.6,4.7-1,7.1-.1.8-3.1.6-3.1-.2l.4-7.5ZM369.8,439.5c.8-.3,2.2-.3,3-.2l.3,4.8c0,.2,1,0,1-.3v-4.5s5.2,0,5.2,0l-.5,8h-4s-1.1-2-1.1-2c0,0-.6,1.7-.6,1.7-4.7,1.9-3.4-4.7-3.2-7.5ZM365.1,439.2h3.6s-.2,7.8-.2,7.8h-3.6c0,0,.2-7.8.2-7.8ZM361,439.3c.1-.8,3.3-.5,3.2.4l-.4,6.8c-1.1.3-2.9.3-3.6-.4.2-2.2.5-4.6.8-6.8ZM359.8,438.7l-.5,7.6-5.1-.7,1.4-7.5,4.2.6ZM353.5,437.3c2.3.5,0,5.8-.6,7.7-.4.6-3-.2-2.9-.9.5-1.6,1.6-7.1,3.5-6.7ZM350.3,436.2c.4,0,.9,1,.8,1.4l-2.1,6.3-3.6-1.2s2.4-5.1,2.4-5.1c.4-1.3,1-1.6,2.5-1.4ZM344.5,441.3c-1.1.9-3.1-.4-2.7-1.7,0,0,3.2-5,3.2-5,5.1-1.6.8,5.3-.5,6.7ZM342.1,431.9c.5-.2,2.1.4,2.4.9.6,1-2.8,4.3-3.5,6.4-.7.7-3.6-1.2-2.7-2.3l3.9-5ZM546.6,382.8s-7.1-1.9-7.1-1.9c-1.8-4.4,5.4-1.4,7.6-1.3,0,.9-.1,1.8-.5,3.2ZM547.6,378.2l-7.3-1.1c-1.7-4.7,5.2-3.2,7.9-2.7,0,1.3-.2,2.4-.6,3.7ZM548.5,373.1c-2.9.5-4.9.4-7.8-.2-1-4.5,5.1-3.4,7.7-2.5.6.2.3,2,0,2.7ZM541.2,369.1c-1.7-4.8,4.6-3.2,7.7-3.4v3.7c-1.7,0-6-.3-7.7-.3ZM548.7,364.3c-2,.6-5.1.6-7.3.2-.3-.7-.3-2-.1-2.9,2.6,0,9.9-2.1,7.4,2.6ZM548.7,359.9s-7.1.4-7.1.4c-1.5-.6-1-2.8.6-3.1l6.3-.6c.6.8.6,2.2.2,3.4ZM548.2,354.9l-7.1,1.5c-.6-.5-.8-2.3-.5-3l7-1.6c.8.4,1,2.5.5,3.1ZM546.9,351.2l-6.3,1.2c-.6-1-.7-1.8-.4-3,2.2-.7,4.6-1.5,6.7-2,.8.1,1.9,3.4,0,3.8ZM547.2,346.4l-7.2,1.7c-.7.2-1.3-2.5-.6-2.8l6.7-2.7,1,3.7ZM502.9,309.9c0,2.4-.6,3.6-3.1,2.5l-.4-7.3c1.1-.3,2.2-.3,3.6-.1v4.9ZM505,313.2c-.3,0-1.1-.6-1.1-1l.3-6.8c.5-.7,2.9-.4,3.2.5-.5,2.3-.2,7.7-2.5,7.4ZM507.7,313.4c.1-2.8.6-10.3,4.4-6.5l-1.8,7c-.8.1-1.7,0-2.7-.5ZM513.8,315c-1.2.3-2.1,0-2.7-1,.7-2.4,1.3-4.3,2.3-6.4.4-.8,3.1,0,2.8.9-.7,2.3-1.5,4.1-2.4,6.6ZM514.9,314.6l2.4-5.9c.8-.4,2.8.5,3.1,1.4l-2.9,5.7c-1,1.3-3.2.6-2.5-1.2ZM518.3,317.2c1-2.1,1.8-6.7,4.7-6.2,2.9,1.6-1.5,5.2-2.4,7.2-.4.6-2.6-.2-2.4-1ZM523.8,320.4c-4.7,1.1.7-5.6,1.8-7.2,1.2.3,2.5,1.2,2.9,2.3l-4.7,4.9ZM530.4,327.9c-.2-.7-.9-1.4-1.6-1.8-2.5-1.6,0-1.5-3.2-3.3l-.9-.5c-.9-.5,4.1-5.4,4.5-5.8.3-.3,1.5.1,1.7.4,1.4,1.6-3.6,4.1-4,6.6,2.3-1,3.7-3,5.6-4.4.8.3,2.2,1.7,2.4,2.5l-3.2,3.9c.9-.4,3.6-3.2,4.6-2.7.6.6,1.5,1.9,1.1,2.7-1.3,1.3-5.9,5.8-6.9,2.4ZM532.4,330.4l6-4c.7-.4,2.2,2,1.6,2.5-2.6,1.4-6.6,6.5-7.6,1.5ZM540.4,330.5c1.1-.5,2.6,2.4,1.6,2.9l-4.9,2.6c-5.9,0,1.1-4.6,3.3-5.5ZM536.1,337.4l6.4-2.9c.9-.4,2.1,2.7,1.3,3.1-1.9,1-4,2-6,2.9-.8-.6-1.3-1.9-1.7-3.1ZM538.9,344.1c-.8.3-1.5-2.5-.6-2.9l6.3-2.6c.5.7.8,1.6,1.2,2.9l-6.8,2.6ZM538.8,382.3c2.2.5,10.4,1.6,6,4.7l-6.7-1.9c0-.8.2-2.2.7-2.8ZM537.9,386.2l6.5,2c.2.7-.2,2.2-.9,3.1l-6.8-2.3c-.2-.6.4-2.5,1.1-2.8ZM536.2,389.8l6.9,2.4c.3,1-.4,2.5-1.3,3.5l-6.8-2.9,1.1-3ZM534.5,393.8c2.3,1,4,1.9,6.4,3.2.8.4-.5,3-1.3,2.6-2.2-1.1-4-2.1-6.1-3.3-.6-.4.3-2.9,1-2.6ZM532.9,397.4l6,3.5c.7.4-.9,3.1-1.6,2.7l-6.4-3.8c.3-.8,1.2-1.9,2-2.4ZM536.4,404.5c.9.8-.5,2.6-1.5,2.9,0,0-5.6-3.9-5.6-3.9,0-4.9,5.2-.5,7.1,1.1ZM528.6,404.3l5.6,4c.5.5-.7,2.6-1.5,2.7-1.8-1.2-9.1-5.1-4.1-6.7ZM526.5,408.1l4.6,3.8c.6,1.4-.5,2.6-1.9,2.5,0,0-4.6-4.6-4.6-4.6-.6-1.1.8-2.4,1.9-1.7ZM518.9,413.5c2.2-1.7,3.6,3.6,6.2,4-.6-2.2-3.1-3.3-4.2-5.5l2.2-1.6c1.5,2,7,4.4,4.2,7.2-.6.5-1.5.5-2.2,0l-.4,2.1c-.1.5-1.8,1.2-2.2.8-1.4-1.5-5.5-5.5-3.6-6.9ZM517.3,415.8l4.5,5.6c-.9.9-1.7,1.5-2.9,2l-3.7-5.9c-.4-.6,1.7-2.3,2.1-1.7ZM514.1,418.4l3.4,5c.7,1-1.9,2.6-2.5,1.8-1.1-1.2-5.4-8.9-.9-6.8ZM510.5,419.7l3.1,6.2c-.6,1.2-2,1.7-3.2,1.6l-2.3-6.7c-.3-.7,1.9-1.6,2.4-1.2ZM505.1,421c2.9-.3,3.2,4.5,3.8,6.7.1,1.3-2.6,1.5-2.9.7-.6-1.8-2.9-7.1-1-7.4ZM503.2,422.4l1.7,6.5c0,1-2.8,1.5-3,.6-.5-2.1-3.2-9.5,1.3-7ZM500.5,429.9c-.5.8-2.7,1-3.5.4,0,0-.4-6.8-.4-6.8,2.9-3.7,3.5,3.1,4,6.3ZM492.6,423.2c.1-.7,2.5-.7,2.7-.1l.5,7.1c-4.8,2.9-3.5-4.3-3.2-7ZM488.6,422.7c.8-.3,2.4-.1,2.9.5l-.4,7.3c-4.8,1.4-2.5-5.1-2.4-7.7ZM484.7,422.4c4.1-2.1,1.7,4.9,1.7,7.1-4.8,2.2-2.4-4.7-1.7-7.1ZM483.5,421.6l-1.4,7.1c-1.1.5-3-.1-2.9-1.4.5-2.4.8-8.5,4.4-5.6ZM479.6,420.2c-.3,2.2-1,5-1.9,7-5.3,1.5-.9-5.7-.4-7.8l2.3.8ZM476.3,419l-2.5,6.7c-.4.9-3.4-.3-3.1-1.2.8-2.3,1.7-4.4,2.7-6.5.8,0,2.4.5,2.9,1.1ZM472.6,417.3l-2.7,6.7c-.4.8-3.2-.5-3.1-1.4,1.3-1.8,3-9.4,5.8-5.3ZM468.1,417.9l-1.9,4.4c-5.5,0-1.3-5.5.3-7.6,2.8-.8,2.4,1.4,1.6,3.2ZM465.6,413.6l-3.9,6.5-2.7-1.6,3.9-6.5,2.7,1.6ZM455.3,408.1c1.6-.5,3.2.2,3.3,2,0,0,.2,0,.3,0,5.9.1,1,5.1-.5,7.4-1.4.1-2.6-1.4-3-2.4-1,0-2.9-.6-3.2-1.5l2-4.7c-1.8,1.7-3.2,6.2-5.6,2.1,1.7-2.3,5.3-8.8,6.6-2.9ZM452.4,404.4l-4.7,6c-.9-.4-2.1-1.3-2.5-2l4.6-5.9,2.6,1.9ZM441.6,396.4c1.1,1.8-2.2,3.2-2.3,5.2,2-1.8,5.6-6.4,5.9-1h2c.5,0,1.4,1.2,1.2,1.7-1.3,1.8-4.3,8.4-6.3,3.5-2.3-.6-3.6-2.6-5.7-3.7-2.3-1.2,1.2-4.3,3-6.4.5-.5,2,.1,2.3.6ZM436.2,393.1c1.5-.7,2.9,1.2,1.8,2.5l-3.3,4c-4.7.8-.5-5.2,1.5-6.5ZM431.2,397.3c-4.5-.4.4-5.3,1.7-6.9,5-1,.5,5.3-1.7,6.9ZM422.8,382.9c.7-.7,2.7,1.1,2.1,1.9l-2.1,3.2c.1.2.4.7.4.7l2.7-3.6c.5-.7,3.1,1,2.7,1.8l-1.5,3.1.4.4c.5-.7,1.5-1.9,2.2-2.6,1.4-.7,2.8,1.2,2,2.5l-3.2,4.2c-.4.5-1.3.4-1.8,0-3.9-3.4-4.6-2.4-4.5-4.9-6.2,1.7-1.6-4.9.6-6.7ZM419.4,380.4c1.7-.7,2.7,1.8,1.6,3l-2.8,3.8c-4.7,1.1-.4-5.3,1.3-6.9ZM418.2,379.7s-3.7,5.4-3.7,5.4c-4.8.6-.5-5.2,1-7.5,1.1.3,3,.4,2.7,2.1ZM414.6,377.2l-3.1,5.4c-1.3,1.1-3.3-.6-2.5-2.2l2.5-4.9c1.2-.2,2.3.4,3,1.8ZM410.7,374.8c-.8,1.8-2.1,4.4-3.2,6.2-5,.4-.8-5.4.3-7.5.4-.7,2.9.4,2.8,1.3ZM406.8,372.9l-2.6,6.2c-.8.5-3.2-.6-2.9-1.4l3-6.3c.7-.1,2.7.8,2.5,1.5ZM403,371l-2.9,6.6-2.5-.9c.6-2.5,1.5-5,2.6-7.1.8-.3,2.6.6,2.8,1.4ZM399.1,369.5l-2.3,6.3c-4.8.3-1.3-5.1-.9-7.6.9-.6,3.5.3,3.3,1.2ZM394.9,367.7c-.5,1.8-1.3,4.5-1.8,6.3-1.3,1.3-3-.4-2.7-1.9l1.4-5.5c.9,0,2.7.3,3.2,1.1ZM387.7,366c4.8-2.9,2.1,5.1,1.3,7.1-4.3,1.6-2.2-4.9-1.3-7.1ZM383.6,364.8c.2-.6,2.8-.2,2.7.5l-.8,6.2c-3.9,3.8-2.7-4.7-1.9-6.8ZM378.8,364.4c.6-.6,2.7-.5,3.5.1,0,2-.3,4.8-.6,6.8-4.3,2.6-2.8-4.6-2.8-7ZM374.5,363.7c1.3,0,2.3,0,3.4.3,0,2.2-.2,5.1-.4,7.1-4,2.5-2.8-5-3-7.3ZM373.5,363.7l.2,7.6h-2.8s-.9-7.4-.9-7.4l3.6-.3ZM368.8,364.8l1.1,6.1c.2,1-2.6,1.3-2.8.6-.9-2.2-2.6-9.5,1.7-6.7ZM365.9,371.7c.1.7-2.5,1.3-2.7.7-.6-1.9-1.4-4.7-1.7-6.6,3.7-3.2,3.7,3.1,4.4,5.9ZM359.1,365.9c2.3.1,2.5,5.2,3.1,6.7,0,.7-2.4,1.8-2.7,1.1-.5-2.4-4.4-7.3-.4-7.8ZM356.2,367.8c.8,1.9,1.5,4.1,2.2,6.4.2.8-2.2,1.7-2.5,1.1,0,0-2.3-4.6-2.3-4.6-1-1.9,1-4.1,2.7-2.9ZM351.9,369.5c1.1,1.6,3.8,6,2.2,7.1-2.7,1.1-3.5-3.8-4.6-5.7-.3-.8,2-2.1,2.4-1.4ZM348,371.4l3.1,5.5c.6,1.3-.8,2.7-2,2l-4-5.5c.4-1.1,1.7-1.8,2.8-2ZM344.6,374.4l3.3,4.7c1,5.9-4.9-.7-5.9-2.7-.5-1.3,1.6-2.7,2.6-2ZM340.8,376.7l4.8,5.5-1.7,2.1-5.6-5.1c.5-1,1.5-1.9,2.4-2.4ZM337.4,380l5,4.4c.4.4,0,1.6-.3,1.9-1.7,1.3-5-2.4-6.4-3.9-.5-.5.9-2.2,1.7-2.4ZM334.8,383.8c1.3.8,5.4,3.5,5.1,5-.5,2.3-6.1-1.8-6.9-2.6-.5-.5,1.1-2.7,1.7-2.3ZM332.4,387.5c1.7.7,4.2,2.2,5.5,3.1,1.3,5-5.3.3-7.1-.5-.8-.5.5-3.1,1.7-2.6ZM329.7,390.9c1.6.8,10.2,3,5.4,5.4-2-.7-4.5-1.6-6.3-2.4-.3-.9.4-2.6.9-3.1ZM328.1,395.1l6.5,2.1c.6.3,0,2.8-.7,2.7-2.5-.3-4.4-1-6.6-1.6-.2-1,.1-2.7.9-3.2ZM333.3,401.3c1.2,4-4.7,1.2-6.8,1.1-2.6-4.4,5.2-1.7,6.8-1.1ZM325.6,403.5l6.6,1.5c.7.2.6,1.9.3,2.4-2.2.5-5.1,0-7.3-.2-.1-1.2,0-2.5.4-3.7ZM324.8,408.3h2.6c1.5-.1,4.3,0,5.3,1,2,2.3-6.6,2.4-7.7,2.6v-3.7ZM325.6,416.4c-.5-.5-.9-2.7-.2-3.2,2.7-.2,7.6-2.3,7.7.6,0,.5-.8,1.5-1.4,1.6l-6.2,1ZM333,416.3c.6,0,.7,1.9.4,2.4l-6.4,2.1c-3.9-3.7,3.6-4.3,5.9-4.5ZM328.6,421.3l4.7-1.5c.5-.2,1.5.7,1.6,1.1.6,2.3-4.8,3.3-6.1,4.1-1.9-.2-2.3-2.9-.3-3.7ZM329.9,428.4s-.8-1.4-.8-1.4c-.2-1.7,5.3-3.2,6.3-4,.9.3,1.7,2,1.5,2.7-4.2,1-5.6,5.3-7.1,2.7ZM334.8,433.9c1.1-2,.5-.2,1.6-2.3-.5-.7-2.4,1.2-2.9,1.5-1-.6-1.9-1.9-2.1-2.8,0,0,5.5-4,5.5-4,2.2.6,1.6,3.5-.5,4.2.7.5,1.8.2,2.3-.6.6-1.1,3.2.7,2.6,1.4-1.2,1.6-2.4,3.1-3.9,4.8-.9,1-3.3-1-2.7-2.1ZM434.4,495.9c0-1.2-4.3-9-2.8-8.1,1.2,1.7,1.9,2.6,4.2,3.6l-1.5,4.5ZM388.8,164.3c7.8,7.7,13.7,12.1,25,12.8,3.6,0,8.3.3,9.9,4.1,2.8,4.8-5.3,4.4-7.6,13.3-.5,6.2,9.6,5.6,9.2,19.3.6,0,1.5.1,2,0,.5-6.8-3.4-12.8-8.2-17.4h30.3c-5,5.2-8.4,9.7-8,16.8.5,0,1.4,0,2,0-1.5-10.3,8.4-13.2,9-17.9-1-4.3-3.5-7.8-7.2-10.2-3.2-2.1,1.7-7.4,3.3-7.5,11.9.4,23.5-3.4,30.8-13.4,2.5-.4,8.4.4,8-3.6,0-1.3-1.2-2.9-2.9-2.9h-38.5c-4.8-25.9-2.6-12.2,8.3-30.4,1.9-1.9,3.6-2.4,1.9-5.7l-4.5-13.7h-35.5s-4.1,14-4.1,14c-.2.8-1.1,2.6-.4,3.2,0,0,2.1,1.7,2.1,1.7,10.6,18.4,13.9,5.3,8.4,30.8h-38.2c-2,0-3,1.9-3,3.4,0,4.1,5.3,2.5,7.7,3.2ZM443,185.8c2.2,1.8,8.7,6.8,6.8,10.2h-31c-2.5-3.3,4.6-8.5,6.7-10.2,2.5-2.1-1.2-6.8-1.4-7.7-.3-1.7,20-.3,20.7-.6-1,1.9-3.8,6.7-1.8,8.4ZM457.8,175c-11.6,1.4-30.9.4-42.7.4-7.9.2-18.2-4.8-22.7-11,22.6-.8,61.6-.2,84.4-.3-3.4,5-13.5,10.4-19,10.9ZM417.8,109.8h32.8c0-.1,3,11.4,3,11.4h-38.8c0,.1,2.9-11.4,2.9-11.4ZM413.4,124.9v-2.3s41.7,0,41.7,0v2.3s-41.7,0-41.7,0ZM485.5,159.5v2.8s-102.5,0-102.5,0v-2.8s102.5,0,102.5,0ZM350,224.7c-3.1,17.1,3.1,31.6,11.8,46.2,1.1,0,2.2,1.8,2.4,2.9,6.7,6.6,12.3,13.3,20.6,18.6,1.1,1.3,3.6,1.5,5.1,1.9,2-1.5,4.6-10.7,7.3-5.2-.5,2.1-3.8,4.9-3.6,6.2l1.7.4c.4-1.9,2.7-7.2,5.2-4.7.8,1.7-1.4,3.5-1.6,5.6.4,0,.9.3,1.3.4,0-1.3.7-3.1,1.7-4,1.4-.7,3.2.8,2.3,2.3l-2,2.6c.6.2,1.8.2,2.4.3-.3-3.3,2.7-3.6,4.4-1.2l-1,1.7c1.5.4,1.4-1.7,3.4-.5.7.5,3.5,1.6,3.7,2.6,2.1.5,4.6,1.2,6.6,1.4v-.4c-11.9-7.1-24.5-13.8-34.4-23.8-1,0-6.4-4.9-6.1-6-8.7-6.6-17.6-20.8-18.6-32.3-.7-.7-.3-4.7-.4-5.7,0-.2.5-1,.5-.9,0-1.1,0-2.8.7-3.7-.5-5.7,8.2-13.7,13.8-14.4,5.6-1.1,11.5-.5,16.4,2.1l4.5-.9,2.8-7.2c1.2-.4,3,.8,3.6,1.8-1.3,1.7-2.3,3.2-2.9,5,.4,0,1.1-.1,1.5-.1,0-1.1,1.5-3.7,1.9-4.7,3.4-.1,3.7,2.2,1.6,4.6l8.9-1c-21.2-17.4-55-19.9-65.4,10.4ZM353.8,223.2c1.7.5,8,2.4,7.3,3.9-.8,1.9-6.3-.4-8.2-1.2-.7-.3.2-3,.9-2.8ZM352.3,227.4l7.3,2c.5.1.6,2,.1,2.4-2.3,0-5.5-.3-7.9-.7-.6-1-.3-2.7.4-3.8ZM351.7,232.7l7.6.6c.6,0,.6,1.9.3,2.4l-7.8.5c-.3-.9-.5-2.6,0-3.5ZM351.8,236.9l7.6.4c.6,0,.9,1.7.8,2.6l-8.1,1.3c-.7-1.3-.8-2.7-.3-4.3ZM351.9,242.2c1.4,0,7.9-2.3,8.8-.4,1.1,2.7-6,3-8,3.8-.5-1.3-.6-2.2-.7-3.4ZM353.6,246.8c2.2-.7,4.9-1.4,7.3-1.9.7-.1,1.3,2.5.6,2.8-2.4.9-4.5,1.6-6.9,2.3-.9.2-1.8-2.9-1-3.2ZM387.9,282.8c1.6-.9,2,.9,2.5,1.9,6,0,.6,5.5-.8,8-1,.2-2.8-1.1-3.2-2.1.9-2.2,3.2-3.3,3.7-6l-4.8,5.4c-.5.1-2-.9-2.1-1.7,0,0,4.6-5.5,4.6-5.5ZM384.2,279.3c1.1,0,2.3,1.2,3,2.4l-4.6,5.5c-6.3-.8-.4-5.6,1.7-7.9ZM383.2,278.3c-1.4,2-3,3.6-5,5.4-.9.8-3.3-1.5-2.9-2.4,1.7-1.6,3.7-3.3,5.6-4.9.7-.5,2.7,1.3,2.2,1.9ZM378.2,272.5l2.4,2.7-6.5,5.8-2.4-2.7,6.5-5.8ZM376.9,272l-4.3,4.2c-1.8,2.3-3.4-.7-4.4-2l6.2-5.2c1.1.4,2.4,1.9,2.5,3ZM373.2,268.4l-5.3,4.4c-.9.7-2.7-1.7-2.1-2.3,1.6-1.2,8-7.6,7.3-2.1ZM365.2,269.5c-4.9-2.4,1.8-5.1,3.8-6.8,5.4,1.6-1.6,5-3.8,6.8ZM368.5,261.8l-5.6,4.2c-1.1.6-2.9-2-1.8-2.7,0,0,5.5-3.9,5.5-3.9,1.8-.3,1.8,1.1,1.9,2.4ZM366.4,256.9c0,.4,0,1.3-.3,1.6l-5.8,3.8c-1.6-.5-2-1.8-1.6-3.1l6.3-3.2c.4-.2,1.3.5,1.4.9ZM365.2,254.7l-7.7,3.8-1.5-3,7.7-3.8,1.5,3ZM362.8,251.2l-6.4,3c-1.4-.2-1.8-1.7-1.6-3,1.7-.2,9.3-5,8.1,0ZM362.6,223.5c-.1.6-1.4,1.4-2,1.1l-6.5-2.7c.3-1.3.9-2.6,1.7-3.6,2.6,2.2,7.3,3.1,6.8,5.2ZM399.9,208.1l-2.9,6.8c-1.1,0-2.5-.3-3-1.1l2.5-7.3c1.2,0,2.7.7,3.4,1.6ZM395.4,206.3l-2.4,7c-.2.7-2.8,0-2.6-.6l1.8-7.5c.9-.2,2.7.4,3.3,1.1ZM389.6,204c2.5.9-.4,6.8-.5,8.4-.6.3-2.6,0-3-.7l1.3-7c.1-.6,1.6-.8,2.2-.7ZM382.4,204c.8-.7,2.6-.5,3.8,0l-1,7.6c-4.3,2.4-3-5.1-2.9-7.6ZM381.3,203.8v7.6c0,.7-2.3,1-2.5.3l-1.4-7.7c1.3-.4,2.9-.6,3.9-.2ZM371.3,205.6c.9,1.2,1.5,6.4,2.9,6.7,0,0-1.4-7-1.4-7,4.3-3.7,4.2,3.9,4.7,6.9-2,.6-4.3,1.3-6.3,2.2l-3.5-7.1c.5-1,2.2-1.6,3.6-1.6ZM366.6,208.1c.9,1.7,4,6.3,2.8,7.5-2.5.8-4-4-5.7-5.6-.5-.8,2.2-2.5,2.9-1.9ZM362.1,210.8l4.5,5.2c.9,1.1,0,2.8-1.4,2.3l-5.4-4.7c-.4-.9,1.3-2.5,2.4-2.8ZM363.9,218.7c1,.9.5,2.9-.9,2.7l-6.2-3.5c-.3-1.5.6-2.8,2-3.4l5.1,4.2ZM511.8,275.1c-9.2,6.5-20.2,3.4-29.4-1.2-1.5-.2-3.7-.5-5.3-.4.3,1.3-3.2,5.6-3.8,6.7-.4.6-2.1-.2-2.5-.7-1.2-1.8,2.8-4.2,3.4-6-.8-.5-1.3-.2-2.2,0,.3,1-2.1,4.3-3.4,4.1-2.3-.9-1.2-2.2-.3-3.7-.5-.1-1.2-.3-1.7-.4-.3,1.4-1,1.7-1.7.3-1.5-.9-3.4-1.1-4.8-.5,17.7,19.4,52.6,26.4,70.7,3.4h-3.4c0-.1-1.6,1.3-1.6,1.3l-1.6-1.9h-1.6c0,0,2,2.3,2,2.3.6.8-1.4,2.5-2.3,2.3-.6-.7-4-4.3-4.1-5.2h-1.7c.5,1,4.2,5.2,5,6.2-.6.9-1.8,1.6-2.9,2.1l-4.5-6.8,1.5-1.7c-1.2-.2-2.5-.3-3.7-.4ZM474.5,280.5s2.9-4.8,2.9-4.8c1-1.3,3.2-.8,2.8,1l-3.4,5.8c-1.1.4-2.9-1.1-2.3-2ZM477.7,282.6l3.8-6c.5-.6,2.8.6,2.5,1.3l-3,6.7c-1.3.1-2.7-.7-3.3-2ZM482,285.4c.8-1.2,3.1-10.2,5.5-6.3l-2.3,7.1c-.8.4-2.5-.3-3.2-.9ZM486.5,286.9c.5-1.8,2.1-10,4.7-6.4l-1.6,7.1c-.2.8-2.9,0-3.1-.7ZM494.2,288.5c-.3.8-2.9.4-3.4-.4,0,0,1.6-7.3,1.6-7.3,4.6-2.4,1.8,5.4,1.8,7.7ZM499.1,288.9c0,.9-3.4.7-3.4-.2,0-2.3.2-5.1.5-7.4,4.1-2.6,2.6,5.1,2.9,7.5ZM500.2,289.5l-.3-7.1c0-.6.9-1.5,1.5-1.5,2.3-.1,2,7.1,2.6,8.4l-3.8.2ZM504.9,289s-1.1-6.9-1.1-6.9c-.3-1.6.9-1.9,2.1-1.3l2.4,7.2c-.8.8-2.1,1.1-3.5,1ZM509.4,288c-.4-1.8-2.5-6-2-7.9.5-1.1,2.4-.4,2.8.5l2.8,5.9c-1.2.8-2.4,1.3-3.7,1.4ZM517.4,284.3c-.4.9-2.1,1.7-3.4,1.9l-3-6.7c-.2-.5.2-1.5.7-1.8,1.8-.9,4.6,5.7,5.6,6.6ZM417.5,373.5c.9-4.7-4.2-1.1-3.6-7.9,2.4.5,20.7,3,22.5,4.2-3.2,2.1-9.5,1.9-13.9,3.2l-5,.5ZM448.1,273.9h-2.5s2,2.7,2,2.7c-1.1.4-2.7.8-4,.9-6.6,0-16.2.6-22.6-.6l.7-2.1c-.6,0-1.5,0-2.1,0-3.2,3,1.3,6.6,3.6,8.8,4.5,4-1,6.8-3.5,9.8-3.1,3.8,2.8,5.4,3.2,8.3.8.5,1.6.7,2.8.8-.4-3.2-2-3.1-3.4-6,7.7-.5,15.5.3,24.2.1-1.4,2.4-5.5,6.8-4.1,10,.3,0,1,0,1.3,0,.6-9.4,12.8-8.9,1.1-17.3-5.4-5.8,11.2-9.7,3.4-15.3ZM442.4,290.1c1.3.8,6.1,3.9,4.8,5.6,0,0-16.3,0-16.3,0-1.4-.6-7.8-.4-9.5-.4-1-1.9,4-4.5,5.2-5.5,1.1-9.8-3.1-5.7-5.5-11.9,5,.2,10.9.8,15.9.6,2.2.1,8-1,10-.2-3.2,5.9-6.3,3.7-4.7,11.8Z"/>
  <path class="st1" d="M442.8,302l3.7-5.5h-4.5c-5.3.1-6.5-.4-9-.4l-10.6.2c1.4,2.9,3,2.8,3.4,6-1.2,0-2-.3-2.8-.8h-1.2s0,.4,0,.4c.6.5,1.6,1,2.5,1.1,2.9.5,5.6,1,8.4,1.6l6.6,1.3c1,.2,2.3.4,3.1.4-.4-1.3-.4-3.2.5-4.4ZM384.8,292.4v.4s.9.4.9.4c-.2-.2-.6-.7-.9-.8ZM449.5,196.5h-30.3s3.7,4.1,3.7,4.1c3.3,3.7,4.6,8.5,4.5,13.3,4.7-1,9.4-1,14.1-.5-.4-7.2,3-11.6,8-16.8ZM430.8,274.2l-9,.4-.7,2.1c3.7.5,7.2.9,11,.8l11.6-.2c1.3,0,3-.5,4-.9l-2-2.7c-4.9,0-9.8.1-14.9.4ZM476.8,164c-2.9-.4-5.6,0-8.4,0h-42.6c0,.1-32.2,0-32.2,0-.5,0-1.2.2-1.2.4,1.9,3.8,9.7,7.7,13.7,9.4s5.7,1.6,9.1,1.6l24.4.3c6.2,0,12,0,18.3-.7s15.6-5.9,19-10.9ZM444.8,177.4l-19.3-.2c-.5,0-1.5.5-1.4.8.2,1,3.9,5.7,1.4,7.7s-9.2,6.9-6.7,10.1h31c1.9-3.3-4.6-8.4-6.8-10.1s.8-6.5,1.8-8.4ZM447,278.3c-1-.6-2.2-.3-3.2-.2l-6.8.4c-2.4.1-4.6,0-7.1-.1l-5.6-.3-3.2-.2c2.4,6.2,6.6,2.2,5.5,11.9-1.2,1-6.3,3.6-5.2,5.5h7.3s2.1.4,2.1.4h16.3c1.3-1.8-3.4-4.9-4.8-5.7-1.6-8.1,1.5-5.9,4.7-11.8Z"/>
  <path class="st0" d="M494.6,494.9c-1.4.6-2.3,1.2-3.3,2-2.2,1.5-4.6,2.6-7.1,3.7l-5.6,2.6c-1.7.8-3.4,1-5.4,0,7.8-17.1,18.2-33.3,32.8-45.4,8.5-7,17.8-12.3,28.9-15.6-.8,12-9.3,27-17.5,35.1l-5.3,5.2-2.1,2.1c-.9.9-2.2,1.7-3.3,2.5-3.9,2.8-7.6,5.7-12.1,7.8ZM378.1,479.5c-5.1-7.3-10.6-13.7-17.2-19.7-9.1-8-19.2-14.1-31.4-17.6,2.4,16.7,12.4,31.6,25.1,42.1,7.7,6.5,16.2,11.4,25.4,15.6,3.9,1.8,7.3,4.3,11.7,4.3-4-9.3-8.4-17.1-13.7-24.9ZM264.4,307.2c10.2-17,16.1-35.5,13.9-55.8-16.8,9.9-26.1,26.6-30.6,44.9-2.8,12.1-3.8,24.2-2.9,36.6,2.4-1.4,3.3-3.1,4.7-5,5.6-6.7,10.5-13.3,15-20.6ZM618.2,302.2c-3.7-20.2-13.3-39.8-31.7-50.8-1.2,10.7,0,20.7,2.6,30.6,2.4,8.7,5.9,16.5,10.4,24.3.7,1.7,1.5,3.4,2.8,4.7,9.4,9.7,8.9,14.6,17.7,22.1.7-10.7,0-20.7-1.8-30.9ZM290.4,422.6c.6-20-10.5-39.8-24.6-53.9-3.4,9.7-3.9,19.3-2.5,29,1.3,8.4,3.9,15.9,7.5,23.6,3.9,8,8.9,15.8,14.3,22.7s6.5,3.5,8,3.9l.3-3.7c.7-8.9-2.1-13.3-2.9-21.7ZM328.5,452.2c-6.8-16.8-15.4-30.3-30.3-40.8s-2.4-1.8-3.7-2.3c-3.7,27.4,13.1,52.8,33,69.8,3,.4,5.8.7,8.8.7-1.9-10.1-4.4-18.5-7.8-27.3ZM596.5,415.2c5.7-14.7,7.6-31.2,2.2-46.5-6.3,6.3-11.4,12.8-15.6,20.4-4.9,8.8-7.9,18.2-8.6,28.2-.2,5.3-1,10.3-2.2,15.5-1.2,5-1.7,9.8-.7,15,2.7-.8,4.7-1.7,7.1-3.1,7.6-9,13.6-18.7,17.8-29.5ZM549.5,466.1c1-1.2,2.5-2.3,3.4-3.6l6.3-9.1c1.3-1.9,2.4-4,3.2-6.2,6.6-10.9,9.7-25.3,7.6-38.4-14.6,8.8-24.1,21.7-31,37s-5.1,12.7-7.5,19.3-2.4,9.3-3.1,14.3l6-.3c2-.1,3.8-1.2,5.2-2.6l6.4-6.6c1.3-1.3,2.3-2.5,3.4-3.8ZM279.5,246.2c1-.5,2.1.3,2.3,1.1l.7,2.7c7.7-4.2,14.6-9.1,20.9-15.2,6.8-6.7,12.4-14.1,16.4-23.3-32.1.4-57.1,24.7-71.5,51.5,2.5,0,4.5-.5,6.7-1.3,5.2-1.9,5.7-1,8.5-3.7,5-4.7,10-8.7,16-11.9ZM264.4,362.8l2.8.9c4-14.8,4.5-35.8-1.8-50.4-21.4,21.1-22.4,52.7-16.1,79.9,1.6,1.2,3,2.1,4.9,3,2.1-3.5,3.6-6.7,4.2-10.5l2-12.3c.6-3.9,2-7.4,3.9-10.5ZM604.3,260.2c3.9,1.4,7.5,2.7,12.1,2.9-15.3-27.4-38.7-50.8-71.6-51.6,6.1,13.7,14.7,22.2,25.7,31.3l11.8,7.5.5-3.1c.1-.6,1.9-1,2.5-.7,5.7,2.4,10.2,6.5,14.6,10.7s2.8,2.2,4.3,3.1ZM271,217.4c3.4-12.1,3.9-24.5,1.8-37.4-13.9,9.6-22.3,25.2-26.2,41.2-2.9,12.9-3.6,25.9-1.4,39,2.5-2.9,6.6-11.2,8.4-13.1,8.3-8.4,14.2-18.2,17.4-29.7ZM610.6,396.2l4.4-3.2c6.6-26.4,5.1-59.4-16.1-79.8-1.9,4.6-4.1,16.2-4.4,20.6-.5,7.8,0,22.7,2.9,29.8l2.7-.4c4.7,6.3,4.5,15.2,5.6,22.6.6,3.8,2.9,6.8,4.7,10.4ZM619.4,260.1c2.1-12.9,1.4-25.3-1.2-37.7-3.8-16.7-12.3-32.6-26.5-42.6-3,18.5-.3,34.3,6.8,51.1s2.5,4.4,4.2,6.2c3.4,3.4,6.5,6.9,9.2,11.2l7.5,11.8ZM587.9,222c0-.3,0-1.1-.2-1.4-16-24.4-42.6-47.1-74.1-45.1,2.4,5.7,12.3,17.4,16.7,21.1l2.3,1.9c4.2,3.5,8.8,7,14,9-.8-.3,14.1,2.8,14.9,3,8.9,1.8,17.6,6.3,24.8,11.5s1.6.3,1.7,0ZM351,175.5c-20.3-1.2-38.7,7.4-53.4,20.5-8.3,7.5-15.3,16-21.3,25.7.8.7,2,.4,2.8-.2,10.8-8.1,26-13.3,39.4-13.8,13.6-8.1,24.9-18.2,32.5-32.1ZM372.5,500.6c-3.4-1.6-6.5-3.9-9.8-5.8-3.7-2.4-7.1-4.8-10.5-7.7-14.8-4.8-30.3-6.2-45.8-2.2,4,5.7,8.9,9.5,14.3,13.2,14.1,8.6,30.2,13,46.7,12.8,6.5-.4,12.5-1,18.4-3.9l-13.3-6.3ZM630.4,316.3c4.5-8.8,8-17.7,9.7-27.6,2.8-15.4,1.3-32.1-6.7-46.4-9,13-15.4,29.5-14.8,45,1.9,6.7,3.6,13.2,4.2,20.2l1.6,18.9c2.7-3.3,4.1-6.6,5.9-10.1ZM246.6,286.5c-.6-8.4-2.3-16.4-5.1-24.3s-4.2-9.9-6.9-14.7-1.8-3.6-3.5-5c-14.7,25.6-7,60.3,8.8,83.4l2-19.6c.7-7,2.3-13.4,4.6-19.9ZM279.9,209.3l10.4-11.1c3.9-4.2,8.1-7.8,12.9-11.2,8.7-13.3,13.8-28.5,13.9-44.9-21.3,10-34.5,30.7-39.1,53l-.8,9.2c-.3,3.4-.8,6.5-1.4,10.1.9-.4,1.8-1.3,2.4-2.3l1.7-2.8ZM508.2,510.3c19.3-1.5,37.4-10.4,50.3-25.4-13.7-3.6-27.7-3.2-41.1.5-1.8.5-3.8.8-5.2,1.9-9.1,7.3-18.8,13.2-29.9,18,8.4,4.2,16.9,5.2,25.9,4.9ZM587.2,203.4l-.7-9.6c-4.8-21.2-18.2-42.2-38.9-51.6.2,15.6,4.8,32.4,14.2,44.8,8.5,6.7,16.2,13.9,22.8,22.5,1.3,1.7,1.8,4.2,4.1,4.7l-1.6-10.8ZM641.5,353.9c2.6-7.1,4.2-14.2,4.7-21.7.4-8-.2-15.7-2.9-23.7-11.1,10.5-18.7,23.7-22.7,38,2.6,13.9,1.5,26.7,0,40.5,2-1,2.8-2.8,4.2-4.6,7.1-8.8,12.8-18,16.6-28.5ZM242.7,360.2v-11.6c-.2-8.5-2.7-16.3-7.4-23.3-4-6-8.5-11.3-14-16.7-5.8,16.8-3,35,4,50.7,3,6.8,6.9,12.8,11.1,18.9s4.4,6.7,7.7,9.3c-1.4-9.5-1.6-18.1-1.5-27.2ZM311.3,467.7c-7.9-9-5.6-9.6-18.3-15.7s-22.2-7.6-34.1-7.8c2,5,4.5,8.7,7.5,12.6,7.6,9.1,16.9,16.5,28,21.2s6.8,3.1,10.3,3c5.8-.1,11-1.2,17-1.9-1.3-2.1-3.2-3.1-4.7-4.8l-5.6-6.5ZM569.6,478c15.3-6.4,29.7-18,36.2-33.8-16.1.5-32.2,4.8-45,14.3l-6.5,8.1c-3.5,4.4-7.3,8.2-11.4,12.2,6,.8,11.4,2.4,17.4,2.6,3.2-.4,6.3-2.5,9.2-3.3ZM610.2,431.7c12.2-10.5,22.7-26.4,24.1-43.2-11.5,4-22.9,9.1-29.9,19.1-2.6,4.4-4.7,8.8-6.8,13.6-3.3,7.6-7.2,14.3-12.1,21.4,1.8,0,12.3-1.7,12.7-1.9,4.6-2.4,8.3-5.5,12-9ZM267.8,422.8l-5.1-10.8c-3.5-6.7-8.5-12.1-15.1-15.9s-11.1-5.6-17.1-7.4c.9,9,3.8,16.7,8,24,6.5,11.4,17.1,20.7,27.9,28.1l12.5,1.6c-4.4-6.7-8-12.8-11-19.7ZM431.9,511.4c1-1,1.8-2.9,1.1-4-7-2.1-14.6-2.6-22-2.1-17,1.4-33.5,8.2-48.2,17,11.8,2.8,23.3,3.5,35,2.7,6.8-.4,12.8-1.9,19.4-4.2s10.7-5.2,14.8-9.4ZM345.9,171.3c7.4-6.4,13-14.2,17.3-22.9s1.8-3.6,2.4-5.8c-4.7-.1-8.5.6-12.8,2-10.8,3.6-20.7,9-29.5,16.3s-7.7,10.5-12.3,19.8c1.7,0,2.8-.6,4.4-1.4,9.5-5,19.8-7.3,30.4-8ZM542.2,162.3c-11.1-11.6-27.1-18.3-43.4-19.7,3.9,10.6,10.4,19.4,18.4,26.9s1.5,2,2.9,2c12.9.5,21.5,4.3,33.2,9.6-2.2-7.6-6.2-13.5-11.1-18.8ZM421.7,545.1c4.3-8.6,6.8-17.7,8.7-27.4-8.1,5.6-16.7,9-26.2,10.3l-6.6.9c-3.5,4.8-6.5,9.9-9,15.4l8.1,3.1c4,1.5,14.4,6.5,18.2,4.8,3.2-1.4,5-4.3,6.8-7ZM481,541.5l-6-12.9c-14.3-1.3-25.4-4.4-37-13.5,1.4,4.4,3.3,8,5.5,11.7s5.9,10.1,9.2,15.1c4.1,6.3,11.3,14.5,19.6,10s8.1-4.7,9.5-7.9-.6-1.9-.9-2.6ZM387.2,474.5c1.7,6,5.1,10.4,8.1,15.2s7.4,9.2,13.7,10.6c3.6.8,7.5,1.3,11.3,1.3h10.5c-.2-21.1-27.2-28.6-43.7-27.1ZM474.9,520.4l-6.5-4.6c-3.9-2.8-8.9-6.9-13.7-7.2s-1.7-3.7-6.3-3.3-7.4.7-11.3,1.8c12.6,21.6,50.7,20.2,71.8,15-4-2.9-7.9-4.7-12.1-6.7-7-3.4-14-6-21.8-7.6.7,2.9,7.3,4.7,4.3,7.9l-4.4,4.7ZM471.1,493.5c4.9-5.2,8.1-11.9,10.7-18.6-10.8-1.2-24.8,1.8-33.4,8.4l5.1,3.2c1.9,1.2,3,3.1,4,4.9,3.8,1.5,7.7,1.2,8.6,6.7,2.1-.9,2.7-2.9,5-4.6ZM439.5,493.9c-1.1,2.6-1.5,4.7-1.7,7.4,3.9.2,7.2.3,10.9.2-1.3-1.5-3.7-1-4.8-2.3l-4.3-5.2Z"/>
</svg>